<svg xmlns="http://www.w3.org/2000/svg" fill="none" viewBox="0.16 0.11 258.74 145.9">
<rect x="0.157471" y="0.105286" width="258.737" height="145.895" fill="#D9D9D9"/>
<g filter="url(#filter0_d_40_18)">
<mask id="path-2-outside-1_40_18" maskUnits="userSpaceOnUse" x="91.303" y="47.2742" width="67" height="39" fill="black">
<rect fill="white" x="91.303" y="47.2742" width="67" height="39"/>
<path d="M110.079 67.3942L107.019 67.2862C105.507 67.2862 104.343 67.7782 103.527 68.7622C102.951 69.4822 102.183 70.6582 101.223 72.2902C100.287 73.9222 99.819 75.2182 99.819 76.1782C99.819 77.0662 100.695 77.5102 102.447 77.5102C103.527 77.5102 104.679 77.3062 105.903 76.8982C108.375 76.0822 110.331 74.5222 111.771 72.2182C111.939 72.0022 112.227 71.8942 112.635 71.8942C113.043 71.8942 113.247 72.1342 113.247 72.6142C113.247 73.0702 112.863 74.0422 112.095 75.5302C111.327 77.0182 110.643 78.1342 110.043 78.8782C109.731 79.2622 109.119 79.4782 108.207 79.5262C107.319 79.5742 105.951 79.5982 104.103 79.5982H100.575L98.523 79.5622L97.551 79.4902C97.527 79.4902 97.443 79.4902 97.299 79.4902C97.155 79.4902 96.975 79.5982 96.759 79.8142C95.967 80.5102 94.839 80.8582 93.375 80.8582C92.679 80.8582 92.331 80.7022 92.331 80.3902V80.2822C92.331 80.0182 93.159 78.4582 94.815 75.6022C96.495 72.7222 98.355 69.5182 100.395 65.9902C102.435 62.4622 103.743 60.0502 104.319 58.7542C104.895 57.4342 105.183 56.3062 105.183 55.3702V54.9742C105.183 54.5662 107.739 54.3622 112.851 54.3622C114.531 54.3622 115.995 54.3862 117.243 54.4342C117.603 54.0262 118.527 53.8222 120.015 53.8222C120.639 53.8222 120.951 53.9782 120.951 54.2902C120.951 54.8422 120.399 55.9582 119.295 57.6382C118.215 59.2942 117.267 60.4222 116.451 61.0222C116.187 61.2382 115.851 61.3462 115.443 61.3462C115.035 61.3462 114.831 61.2622 114.831 61.0942C114.831 61.0222 114.867 60.9262 114.939 60.8062C115.323 60.0622 115.515 59.2222 115.515 58.2862C115.515 56.9662 114.603 56.3062 112.779 56.3062C111.675 56.3062 110.799 56.5942 110.151 57.1702C109.527 57.7462 108.903 58.5502 108.279 59.5822C107.655 60.6142 107.187 61.5022 106.875 62.2462C106.587 62.9902 106.443 63.4582 106.443 63.6502C106.443 64.2262 106.719 64.5862 107.271 64.7302C107.847 64.8502 108.975 64.9102 110.655 64.9102L113.319 64.8022C113.559 64.8022 113.679 64.8982 113.679 65.0902C113.679 65.2582 113.547 65.5582 113.283 65.9902C113.043 66.3982 112.791 66.6862 112.527 66.8542C111.999 67.2142 111.183 67.3942 110.079 67.3942ZM113.012 80.6422C113.012 79.6822 113.408 78.1942 114.2 76.1782C114.992 74.1382 115.88 72.1582 116.864 70.2382C117.848 68.3182 119.18 65.9542 120.86 63.1462C123.356 58.9942 125.924 54.8782 128.564 50.7982C128.972 50.1502 129.608 49.6222 130.472 49.2142C131.336 48.8062 132.116 48.6022 132.812 48.6022C133.508 48.6022 133.868 48.7942 133.892 49.1782C133.892 49.2982 133.82 49.4302 133.676 49.5742C132.86 50.3182 131.492 52.0462 129.572 54.7582C127.652 57.4462 125.612 60.5302 123.452 64.0102C121.316 67.4902 119.432 71.1622 117.8 75.0262C116.192 78.8902 115.388 82.0462 115.388 84.4942C115.388 84.8542 115.28 85.0342 115.064 85.0342C114.656 85.0342 114.308 84.8782 114.02 84.5662C113.732 84.2782 113.528 83.9062 113.408 83.4502C113.144 82.5382 113.012 81.6022 113.012 80.6422ZM120.891 81.1102C120.555 81.1102 120.183 80.8942 119.775 80.4622C119.367 80.0542 119.163 79.5502 119.163 78.9502C119.163 78.6142 119.943 76.9222 121.503 73.8742C123.087 70.8022 123.903 68.7262 123.951 67.6462C123.951 67.3102 124.167 66.9982 124.599 66.7102C125.367 66.2542 126.507 66.0262 128.019 66.0262C128.307 66.0262 128.607 66.0862 128.919 66.2062C129.255 66.3022 129.423 66.4462 129.423 66.6382C129.423 66.7342 129.387 66.8182 129.315 66.8902C128.403 68.0422 127.071 70.1182 125.319 73.1182C123.567 76.1182 122.247 78.5542 121.359 80.4262C121.239 80.8822 121.083 81.1102 120.891 81.1102ZM128.775 64.0102C127.719 64.0102 127.167 63.5902 127.119 62.7502V62.7142C127.119 61.9942 127.467 61.4062 128.163 60.9502C128.883 60.4942 129.591 60.2662 130.287 60.2662C131.343 60.2662 131.895 60.6862 131.943 61.5262C131.943 62.2462 131.595 62.8462 130.899 63.3262C130.203 63.7822 129.495 64.0102 128.775 64.0102ZM134.26 78.0142L134.332 77.2582C134.332 77.0662 134.26 76.9702 134.116 76.9702C133.9 76.9702 133.456 77.2822 132.784 77.9062C132.136 78.5302 131.308 79.1542 130.3 79.7782C129.316 80.4262 128.32 80.7502 127.312 80.7502C126.328 80.7502 125.836 80.0182 125.836 78.5542C125.836 76.7302 126.628 74.6302 128.212 72.2542C129.028 71.0542 129.964 69.9502 131.02 68.9422C132.1 67.9102 133.408 67.0702 134.944 66.4222C136.48 65.7502 138.088 65.4142 139.768 65.4142C140.656 65.4142 141.412 65.6542 142.036 66.1342C142.66 66.5902 142.972 67.1662 142.972 67.8622C142.972 68.5342 142.768 68.8702 142.36 68.8702C142.144 68.8702 141.856 68.7382 141.496 68.4742C140.824 68.0182 139.768 67.7902 138.328 67.7902C136.432 67.7902 134.632 68.6542 132.928 70.3822C131.248 72.0862 130.408 73.7782 130.408 75.4582C130.408 75.6742 130.468 75.8782 130.588 76.0702C130.732 76.2622 130.924 76.3582 131.164 76.3582C131.884 76.3582 132.808 75.8662 133.936 74.8822C135.064 73.8742 136.168 72.4342 137.248 70.5622C137.32 70.3462 137.584 70.1422 138.04 69.9502C138.496 69.7582 139.036 69.6622 139.66 69.6622C140.548 69.7342 140.992 69.9262 140.992 70.2382C140.992 70.2622 140.896 70.4182 140.704 70.7062C140.536 70.9702 140.224 71.4622 139.768 72.1822C139.312 72.9022 138.664 74.0902 137.824 75.7462C137.008 77.3782 136.528 78.6742 136.384 79.6342C136.36 79.9222 136.24 80.0662 136.024 80.0662C134.848 80.0662 134.26 79.3822 134.26 78.0142ZM137.874 80.9662C137.874 80.7742 138.006 80.6542 138.27 80.6062C139.95 80.6062 141.738 80.0662 143.634 78.9862C145.554 77.9062 146.514 76.7782 146.514 75.6022C146.514 74.7382 145.938 73.9102 144.786 73.1182C143.634 72.3022 143.058 71.4502 143.058 70.5622C143.058 69.2422 143.898 68.1022 145.578 67.1422C147.258 66.1582 149.166 65.6662 151.302 65.6662C151.686 65.6662 151.938 65.6782 152.058 65.7022C152.178 65.7022 152.286 65.6302 152.382 65.4862C152.502 65.3182 152.634 65.1382 152.778 64.9462C152.922 64.7542 153.186 64.5862 153.57 64.4422C153.954 64.2742 154.41 64.1902 154.938 64.1902C156.162 64.1902 156.774 64.3702 156.774 64.7302C156.774 64.8022 156.762 64.8622 156.738 64.9102C156.354 65.2462 155.67 66.0742 154.686 67.3942C153.702 68.7142 152.982 69.9502 152.526 71.1022C152.43 71.3182 152.214 71.4262 151.878 71.4262C151.566 71.4262 151.254 71.2462 150.942 70.8862C150.63 70.5022 150.474 70.1422 150.474 69.8062C150.474 69.4462 150.534 69.0742 150.654 68.6902C150.774 68.2822 150.834 68.0422 150.834 67.9702C150.834 67.6582 150.642 67.5022 150.258 67.5022C149.514 67.5022 148.734 67.7302 147.918 68.1862C147.126 68.6182 146.73 69.2542 146.73 70.0942C146.73 70.9102 147.33 71.7382 148.53 72.5782C148.986 72.9142 149.394 73.3462 149.754 73.8742C150.138 74.4022 150.33 74.9542 150.33 75.5302C150.33 77.1622 149.262 78.6382 147.126 79.9582C144.99 81.3022 142.674 81.9742 140.178 81.9742C138.762 81.9742 137.994 81.6382 137.874 80.9662Z"/>
</mask>
<path d="M110.079 67.3942L107.019 67.2862C105.507 67.2862 104.343 67.7782 103.527 68.7622C102.951 69.4822 102.183 70.6582 101.223 72.2902C100.287 73.9222 99.819 75.2182 99.819 76.1782C99.819 77.0662 100.695 77.5102 102.447 77.5102C103.527 77.5102 104.679 77.3062 105.903 76.8982C108.375 76.0822 110.331 74.5222 111.771 72.2182C111.939 72.0022 112.227 71.8942 112.635 71.8942C113.043 71.8942 113.247 72.1342 113.247 72.6142C113.247 73.0702 112.863 74.0422 112.095 75.5302C111.327 77.0182 110.643 78.1342 110.043 78.8782C109.731 79.2622 109.119 79.4782 108.207 79.5262C107.319 79.5742 105.951 79.5982 104.103 79.5982H100.575L98.523 79.5622L97.551 79.4902C97.527 79.4902 97.443 79.4902 97.299 79.4902C97.155 79.4902 96.975 79.5982 96.759 79.8142C95.967 80.5102 94.839 80.8582 93.375 80.8582C92.679 80.8582 92.331 80.7022 92.331 80.3902V80.2822C92.331 80.0182 93.159 78.4582 94.815 75.6022C96.495 72.7222 98.355 69.5182 100.395 65.9902C102.435 62.4622 103.743 60.0502 104.319 58.7542C104.895 57.4342 105.183 56.3062 105.183 55.3702V54.9742C105.183 54.5662 107.739 54.3622 112.851 54.3622C114.531 54.3622 115.995 54.3862 117.243 54.4342C117.603 54.0262 118.527 53.8222 120.015 53.8222C120.639 53.8222 120.951 53.9782 120.951 54.2902C120.951 54.8422 120.399 55.9582 119.295 57.6382C118.215 59.2942 117.267 60.4222 116.451 61.0222C116.187 61.2382 115.851 61.3462 115.443 61.3462C115.035 61.3462 114.831 61.2622 114.831 61.0942C114.831 61.0222 114.867 60.9262 114.939 60.8062C115.323 60.0622 115.515 59.2222 115.515 58.2862C115.515 56.9662 114.603 56.3062 112.779 56.3062C111.675 56.3062 110.799 56.5942 110.151 57.1702C109.527 57.7462 108.903 58.5502 108.279 59.5822C107.655 60.6142 107.187 61.5022 106.875 62.2462C106.587 62.9902 106.443 63.4582 106.443 63.6502C106.443 64.2262 106.719 64.5862 107.271 64.7302C107.847 64.8502 108.975 64.9102 110.655 64.9102L113.319 64.8022C113.559 64.8022 113.679 64.8982 113.679 65.0902C113.679 65.2582 113.547 65.5582 113.283 65.9902C113.043 66.3982 112.791 66.6862 112.527 66.8542C111.999 67.2142 111.183 67.3942 110.079 67.3942ZM113.012 80.6422C113.012 79.6822 113.408 78.1942 114.2 76.1782C114.992 74.1382 115.88 72.1582 116.864 70.2382C117.848 68.3182 119.18 65.9542 120.86 63.1462C123.356 58.9942 125.924 54.8782 128.564 50.7982C128.972 50.1502 129.608 49.6222 130.472 49.2142C131.336 48.8062 132.116 48.6022 132.812 48.6022C133.508 48.6022 133.868 48.7942 133.892 49.1782C133.892 49.2982 133.82 49.4302 133.676 49.5742C132.86 50.3182 131.492 52.0462 129.572 54.7582C127.652 57.4462 125.612 60.5302 123.452 64.0102C121.316 67.4902 119.432 71.1622 117.8 75.0262C116.192 78.8902 115.388 82.0462 115.388 84.4942C115.388 84.8542 115.28 85.0342 115.064 85.0342C114.656 85.0342 114.308 84.8782 114.02 84.5662C113.732 84.2782 113.528 83.9062 113.408 83.4502C113.144 82.5382 113.012 81.6022 113.012 80.6422ZM120.891 81.1102C120.555 81.1102 120.183 80.8942 119.775 80.4622C119.367 80.0542 119.163 79.5502 119.163 78.9502C119.163 78.6142 119.943 76.9222 121.503 73.8742C123.087 70.8022 123.903 68.7262 123.951 67.6462C123.951 67.3102 124.167 66.9982 124.599 66.7102C125.367 66.2542 126.507 66.0262 128.019 66.0262C128.307 66.0262 128.607 66.0862 128.919 66.2062C129.255 66.3022 129.423 66.4462 129.423 66.6382C129.423 66.7342 129.387 66.8182 129.315 66.8902C128.403 68.0422 127.071 70.1182 125.319 73.1182C123.567 76.1182 122.247 78.5542 121.359 80.4262C121.239 80.8822 121.083 81.1102 120.891 81.1102ZM128.775 64.0102C127.719 64.0102 127.167 63.5902 127.119 62.7502V62.7142C127.119 61.9942 127.467 61.4062 128.163 60.9502C128.883 60.4942 129.591 60.2662 130.287 60.2662C131.343 60.2662 131.895 60.6862 131.943 61.5262C131.943 62.2462 131.595 62.8462 130.899 63.3262C130.203 63.7822 129.495 64.0102 128.775 64.0102ZM134.26 78.0142L134.332 77.2582C134.332 77.0662 134.26 76.9702 134.116 76.9702C133.9 76.9702 133.456 77.2822 132.784 77.9062C132.136 78.5302 131.308 79.1542 130.3 79.7782C129.316 80.4262 128.32 80.7502 127.312 80.7502C126.328 80.7502 125.836 80.0182 125.836 78.5542C125.836 76.7302 126.628 74.6302 128.212 72.2542C129.028 71.0542 129.964 69.9502 131.02 68.9422C132.1 67.9102 133.408 67.0702 134.944 66.4222C136.48 65.7502 138.088 65.4142 139.768 65.4142C140.656 65.4142 141.412 65.6542 142.036 66.1342C142.66 66.5902 142.972 67.1662 142.972 67.8622C142.972 68.5342 142.768 68.8702 142.36 68.8702C142.144 68.8702 141.856 68.7382 141.496 68.4742C140.824 68.0182 139.768 67.7902 138.328 67.7902C136.432 67.7902 134.632 68.6542 132.928 70.3822C131.248 72.0862 130.408 73.7782 130.408 75.4582C130.408 75.6742 130.468 75.8782 130.588 76.0702C130.732 76.2622 130.924 76.3582 131.164 76.3582C131.884 76.3582 132.808 75.8662 133.936 74.8822C135.064 73.8742 136.168 72.4342 137.248 70.5622C137.32 70.3462 137.584 70.1422 138.04 69.9502C138.496 69.7582 139.036 69.6622 139.66 69.6622C140.548 69.7342 140.992 69.9262 140.992 70.2382C140.992 70.2622 140.896 70.4182 140.704 70.7062C140.536 70.9702 140.224 71.4622 139.768 72.1822C139.312 72.9022 138.664 74.0902 137.824 75.7462C137.008 77.3782 136.528 78.6742 136.384 79.6342C136.36 79.9222 136.24 80.0662 136.024 80.0662C134.848 80.0662 134.26 79.3822 134.26 78.0142ZM137.874 80.9662C137.874 80.7742 138.006 80.6542 138.27 80.6062C139.95 80.6062 141.738 80.0662 143.634 78.9862C145.554 77.9062 146.514 76.7782 146.514 75.6022C146.514 74.7382 145.938 73.9102 144.786 73.1182C143.634 72.3022 143.058 71.4502 143.058 70.5622C143.058 69.2422 143.898 68.1022 145.578 67.1422C147.258 66.1582 149.166 65.6662 151.302 65.6662C151.686 65.6662 151.938 65.6782 152.058 65.7022C152.178 65.7022 152.286 65.6302 152.382 65.4862C152.502 65.3182 152.634 65.1382 152.778 64.9462C152.922 64.7542 153.186 64.5862 153.57 64.4422C153.954 64.2742 154.41 64.1902 154.938 64.1902C156.162 64.1902 156.774 64.3702 156.774 64.7302C156.774 64.8022 156.762 64.8622 156.738 64.9102C156.354 65.2462 155.67 66.0742 154.686 67.3942C153.702 68.7142 152.982 69.9502 152.526 71.1022C152.43 71.3182 152.214 71.4262 151.878 71.4262C151.566 71.4262 151.254 71.2462 150.942 70.8862C150.63 70.5022 150.474 70.1422 150.474 69.8062C150.474 69.4462 150.534 69.0742 150.654 68.6902C150.774 68.2822 150.834 68.0422 150.834 67.9702C150.834 67.6582 150.642 67.5022 150.258 67.5022C149.514 67.5022 148.734 67.7302 147.918 68.1862C147.126 68.6182 146.73 69.2542 146.73 70.0942C146.73 70.9102 147.33 71.7382 148.53 72.5782C148.986 72.9142 149.394 73.3462 149.754 73.8742C150.138 74.4022 150.33 74.9542 150.33 75.5302C150.33 77.1622 149.262 78.6382 147.126 79.9582C144.99 81.3022 142.674 81.9742 140.178 81.9742C138.762 81.9742 137.994 81.6382 137.874 80.9662Z" fill="#A51111"/>
<path d="M110.079 67.3942L110.044 68.3936L110.061 68.3942H110.079V67.3942ZM107.019 67.2862L107.054 66.2869L107.037 66.2862H107.019V67.2862ZM103.527 68.7622L102.757 68.1239L102.752 68.1307L102.746 68.1375L103.527 68.7622ZM101.223 72.2902L100.361 71.7832L100.356 71.7927L101.223 72.2902ZM105.903 76.8982L105.59 75.9486L105.587 75.9495L105.903 76.8982ZM111.771 72.2182L110.982 71.6043L110.95 71.6448L110.923 71.6882L111.771 72.2182ZM112.095 75.5302L112.984 75.9889L112.984 75.9889L112.095 75.5302ZM110.043 78.8782L110.819 79.5088L110.821 79.506L110.043 78.8782ZM108.207 79.5262L108.154 78.5276L108.153 78.5277L108.207 79.5262ZM100.575 79.5982L100.557 80.5981L100.566 80.5982H100.575V79.5982ZM98.523 79.5622L98.4491 80.5595L98.4772 80.5616L98.5054 80.5621L98.523 79.5622ZM97.551 79.4902L97.6249 78.493L97.588 78.4902H97.551V79.4902ZM96.759 79.8142L97.4191 80.5654L97.4433 80.5441L97.4661 80.5213L96.759 79.8142ZM94.815 75.6022L93.9512 75.0984L93.9499 75.1006L94.815 75.6022ZM100.395 65.9902L101.261 66.4908L101.261 66.4908L100.395 65.9902ZM104.319 58.7542L105.233 59.1604L105.236 59.1542L104.319 58.7542ZM117.243 54.4342L117.205 55.4335L117.679 55.4517L117.993 55.0959L117.243 54.4342ZM119.295 57.6382L118.459 57.089L118.457 57.092L119.295 57.6382ZM116.451 61.0222L115.859 60.2166L115.838 60.2319L115.818 60.2483L116.451 61.0222ZM114.939 60.8062L115.796 61.3207L115.813 61.2933L115.828 61.2649L114.939 60.8062ZM110.151 57.1702L109.487 56.4228L109.48 56.4291L109.473 56.4354L110.151 57.1702ZM108.279 59.5822L107.423 59.0648L107.423 59.0648L108.279 59.5822ZM106.875 62.2462L105.953 61.8595L105.947 61.8723L105.942 61.8852L106.875 62.2462ZM107.271 64.7302L107.019 65.6978L107.043 65.7041L107.067 65.7092L107.271 64.7302ZM110.655 64.9102V65.9102H110.675L110.695 65.9094L110.655 64.9102ZM113.319 64.8022V63.8022H113.299L113.278 63.8031L113.319 64.8022ZM113.283 65.9902L112.43 65.4688L112.425 65.476L112.421 65.4832L113.283 65.9902ZM112.527 66.8542L111.99 66.0106L111.977 66.0191L111.964 66.028L112.527 66.8542ZM110.114 66.3949L107.054 66.2869L106.984 68.2856L110.044 68.3936L110.114 66.3949ZM107.019 66.2862C105.27 66.2862 103.799 66.8681 102.757 68.1239L104.297 69.4006C104.887 68.6884 105.744 68.2862 107.019 68.2862V66.2862ZM102.746 68.1375C102.123 68.9161 101.326 70.1435 100.361 71.7832L102.085 72.7973C103.04 71.173 103.779 70.0483 104.308 69.3869L102.746 68.1375ZM100.356 71.7927C99.4013 73.4565 98.819 74.9441 98.819 76.1782H100.819C100.819 75.4923 101.173 74.388 102.09 72.7877L100.356 71.7927ZM98.819 76.1782C98.819 76.5724 98.9189 76.9625 99.1477 77.3105C99.3729 77.6528 99.6852 77.8975 100.024 78.0692C100.673 78.398 101.519 78.5102 102.447 78.5102V76.5102C101.623 76.5102 101.155 76.4005 100.928 76.2853C100.829 76.2349 100.813 76.2022 100.819 76.2115C100.829 76.2264 100.819 76.228 100.819 76.1782H98.819ZM102.447 78.5102C103.653 78.5102 104.912 78.2825 106.219 77.8469L105.587 75.9495C104.445 76.33 103.401 76.5102 102.447 76.5102V78.5102ZM106.216 77.8478C108.92 76.9553 111.061 75.2408 112.619 72.7482L110.923 71.6882C109.601 73.8036 107.83 75.2092 105.59 75.9486L106.216 77.8478ZM112.56 72.8322C112.541 72.8568 112.519 72.8769 112.499 72.8917C112.479 72.9059 112.465 72.9112 112.464 72.9116C112.464 72.9117 112.476 72.9072 112.505 72.9027C112.534 72.8981 112.576 72.8942 112.635 72.8942V70.8942C112.075 70.8942 111.418 71.0433 110.982 71.6043L112.56 72.8322ZM112.635 72.8942C112.641 72.8942 112.602 72.8954 112.538 72.8702C112.467 72.8427 112.393 72.7932 112.332 72.7219C112.218 72.5873 112.247 72.4923 112.247 72.6142H114.247C114.247 72.2562 114.174 71.8012 113.856 71.4266C113.511 71.0209 113.039 70.8942 112.635 70.8942V72.8942ZM112.247 72.6142C112.247 72.6034 112.247 72.654 112.209 72.7933C112.174 72.9238 112.116 73.0969 112.029 73.3178C111.854 73.76 111.583 74.3419 111.206 75.0716L112.984 75.9889C113.375 75.2305 113.68 74.5825 113.889 74.0527C114.083 73.5621 114.247 73.0493 114.247 72.6142H112.247ZM111.206 75.0716C110.45 76.5372 109.802 77.5839 109.265 78.2505L110.821 79.506C111.484 78.6845 112.204 77.4993 112.984 75.9889L111.206 75.0716ZM109.267 78.2476C109.236 78.2859 109.003 78.483 108.154 78.5276L108.26 80.5248C109.235 80.4735 110.226 80.2385 110.819 79.5088L109.267 78.2476ZM108.153 78.5277C107.293 78.5742 105.948 78.5982 104.103 78.5982V80.5982C105.954 80.5982 107.345 80.5743 108.261 80.5248L108.153 78.5277ZM104.103 78.5982H100.575V80.5982H104.103V78.5982ZM100.593 78.5984L98.5405 78.5624L98.5054 80.5621L100.557 80.5981L100.593 78.5984ZM98.5969 78.565L97.6249 78.493L97.4771 80.4875L98.4491 80.5595L98.5969 78.565ZM97.551 78.4902C97.5509 78.4902 97.5509 78.4902 97.5508 78.4902C97.5508 78.4902 97.5507 78.4902 97.5507 78.4902C97.5506 78.4902 97.5506 78.4902 97.5506 78.4902C97.5505 78.4902 97.5505 78.4902 97.5504 78.4902C97.5504 78.4902 97.5503 78.4902 97.5503 78.4902C97.5502 78.4902 97.5502 78.4902 97.5501 78.4902C97.5501 78.4902 97.55 78.4902 97.55 78.4902C97.5499 78.4902 97.5499 78.4902 97.5498 78.4902C97.5498 78.4902 97.5497 78.4902 97.5497 78.4902C97.5496 78.4902 97.5496 78.4902 97.5495 78.4902C97.5495 78.4902 97.5494 78.4902 97.5493 78.4902C97.5493 78.4902 97.5492 78.4902 97.5492 78.4902C97.5491 78.4902 97.5491 78.4902 97.549 78.4902C97.549 78.4902 97.5489 78.4902 97.5489 78.4902C97.5488 78.4902 97.5488 78.4902 97.5487 78.4902C97.5487 78.4902 97.5486 78.4902 97.5486 78.4902C97.5485 78.4902 97.5484 78.4902 97.5484 78.4902C97.5483 78.4902 97.5483 78.4902 97.5482 78.4902C97.5482 78.4902 97.5481 78.4902 97.5481 78.4902C97.548 78.4902 97.5479 78.4902 97.5479 78.4902C97.5478 78.4902 97.5478 78.4902 97.5477 78.4902C97.5477 78.4902 97.5476 78.4902 97.5476 78.4902C97.5475 78.4902 97.5474 78.4902 97.5474 78.4902C97.5473 78.4902 97.5473 78.4902 97.5472 78.4902C97.5472 78.4902 97.5471 78.4902 97.547 78.4902C97.547 78.4902 97.5469 78.4902 97.5469 78.4902C97.5468 78.4902 97.5467 78.4902 97.5467 78.4902C97.5466 78.4902 97.5466 78.4902 97.5465 78.4902C97.5464 78.4902 97.5464 78.4902 97.5463 78.4902C97.5463 78.4902 97.5462 78.4902 97.5461 78.4902C97.5461 78.4902 97.546 78.4902 97.546 78.4902C97.5459 78.4902 97.5458 78.4902 97.5458 78.4902C97.5457 78.4902 97.5457 78.4902 97.5456 78.4902C97.5455 78.4902 97.5455 78.4902 97.5454 78.4902C97.5453 78.4902 97.5453 78.4902 97.5452 78.4902C97.5452 78.4902 97.5451 78.4902 97.545 78.4902C97.545 78.4902 97.5449 78.4902 97.5448 78.4902C97.5448 78.4902 97.5447 78.4902 97.5446 78.4902C97.5446 78.4902 97.5445 78.4902 97.5445 78.4902C97.5444 78.4902 97.5443 78.4902 97.5443 78.4902C97.5442 78.4902 97.5441 78.4902 97.5441 78.4902C97.544 78.4902 97.5439 78.4902 97.5439 78.4902C97.5438 78.4902 97.5437 78.4902 97.5437 78.4902C97.5436 78.4902 97.5435 78.4902 97.5435 78.4902C97.5434 78.4902 97.5433 78.4902 97.5433 78.4902C97.5432 78.4902 97.5431 78.4902 97.5431 78.4902C97.543 78.4902 97.5429 78.4902 97.5429 78.4902C97.5428 78.4902 97.5427 78.4902 97.5426 78.4902C97.5426 78.4902 97.5425 78.4902 97.5424 78.4902C97.5424 78.4902 97.5423 78.4902 97.5422 78.4902C97.5422 78.4902 97.5421 78.4902 97.542 78.4902C97.542 78.4902 97.5419 78.4902 97.5418 78.4902C97.5417 78.4902 97.5417 78.4902 97.5416 78.4902C97.5415 78.4902 97.5415 78.4902 97.5414 78.4902C97.5413 78.4902 97.5412 78.4902 97.5412 78.4902C97.5411 78.4902 97.541 78.4902 97.541 78.4902C97.5409 78.4902 97.5408 78.4902 97.5407 78.4902C97.5407 78.4902 97.5406 78.4902 97.5405 78.4902C97.5404 78.4902 97.5404 78.4902 97.5403 78.4902C97.5402 78.4902 97.5401 78.4902 97.5401 78.4902C97.54 78.4902 97.5399 78.4902 97.5398 78.4902C97.5398 78.4902 97.5397 78.4902 97.5396 78.4902C97.5395 78.4902 97.5395 78.4902 97.5394 78.4902C97.5393 78.4902 97.5392 78.4902 97.5392 78.4902C97.5391 78.4902 97.539 78.4902 97.5389 78.4902C97.5389 78.4902 97.5388 78.4902 97.5387 78.4902C97.5386 78.4902 97.5386 78.4902 97.5385 78.4902C97.5384 78.4902 97.5383 78.4902 97.5382 78.4902C97.5382 78.4902 97.5381 78.4902 97.538 78.4902C97.5379 78.4902 97.5378 78.4902 97.5378 78.4902C97.5377 78.4902 97.5376 78.4902 97.5375 78.4902C97.5375 78.4902 97.5374 78.4902 97.5373 78.4902C97.5372 78.4902 97.5371 78.4902 97.5371 78.4902C97.537 78.4902 97.5369 78.4902 97.5368 78.4902C97.5367 78.4902 97.5367 78.4902 97.5366 78.4902C97.5365 78.4902 97.5364 78.4902 97.5363 78.4902C97.5362 78.4902 97.5362 78.4902 97.5361 78.4902C97.536 78.4902 97.5359 78.4902 97.5358 78.4902C97.5357 78.4902 97.5357 78.4902 97.5356 78.4902C97.5355 78.4902 97.5354 78.4902 97.5353 78.4902C97.5353 78.4902 97.5352 78.4902 97.5351 78.4902C97.535 78.4902 97.5349 78.4902 97.5348 78.4902C97.5347 78.4902 97.5347 78.4902 97.5346 78.4902C97.5345 78.4902 97.5344 78.4902 97.5343 78.4902C97.5342 78.4902 97.5342 78.4902 97.5341 78.4902C97.534 78.4902 97.5339 78.4902 97.5338 78.4902C97.5337 78.4902 97.5336 78.4902 97.5335 78.4902C97.5335 78.4902 97.5334 78.4902 97.5333 78.4902C97.5332 78.4902 97.5331 78.4902 97.533 78.4902C97.5329 78.4902 97.5328 78.4902 97.5328 78.4902C97.5327 78.4902 97.5326 78.4902 97.5325 78.4902C97.5324 78.4902 97.5323 78.4902 97.5322 78.4902C97.5321 78.4902 97.5321 78.4902 97.532 78.4902C97.5319 78.4902 97.5318 78.4902 97.5317 78.4902C97.5316 78.4902 97.5315 78.4902 97.5314 78.4902C97.5313 78.4902 97.5312 78.4902 97.5312 78.4902C97.5311 78.4902 97.531 78.4902 97.5309 78.4902C97.5308 78.4902 97.5307 78.4902 97.5306 78.4902C97.5305 78.4902 97.5304 78.4902 97.5303 78.4902C97.5302 78.4902 97.5301 78.4902 97.53 78.4902C97.53 78.4902 97.5299 78.4902 97.5298 78.4902C97.5297 78.4902 97.5296 78.4902 97.5295 78.4902C97.5294 78.4902 97.5293 78.4902 97.5292 78.4902C97.5291 78.4902 97.529 78.4902 97.5289 78.4902C97.5288 78.4902 97.5287 78.4902 97.5286 78.4902C97.5285 78.4902 97.5285 78.4902 97.5284 78.4902C97.5283 78.4902 97.5282 78.4902 97.5281 78.4902C97.528 78.4902 97.5279 78.4902 97.5278 78.4902C97.5277 78.4902 97.5276 78.4902 97.5275 78.4902C97.5274 78.4902 97.5273 78.4902 97.5272 78.4902C97.5271 78.4902 97.527 78.4902 97.5269 78.4902C97.5268 78.4902 97.5267 78.4902 97.5266 78.4902C97.5265 78.4902 97.5264 78.4902 97.5263 78.4902C97.5262 78.4902 97.5261 78.4902 97.526 78.4902C97.5259 78.4902 97.5258 78.4902 97.5257 78.4902C97.5256 78.4902 97.5255 78.4902 97.5254 78.4902C97.5253 78.4902 97.5252 78.4902 97.5251 78.4902C97.525 78.4902 97.5249 78.4902 97.5248 78.4902C97.5247 78.4902 97.5246 78.4902 97.5245 78.4902C97.5244 78.4902 97.5243 78.4902 97.5242 78.4902C97.5241 78.4902 97.524 78.4902 97.5239 78.4902C97.5238 78.4902 97.5237 78.4902 97.5236 78.4902C97.5235 78.4902 97.5234 78.4902 97.5233 78.4902C97.5232 78.4902 97.5231 78.4902 97.523 78.4902C97.5229 78.4902 97.5228 78.4902 97.5227 78.4902C97.5226 78.4902 97.5225 78.4902 97.5224 78.4902C97.5223 78.4902 97.5221 78.4902 97.522 78.4902C97.5219 78.4902 97.5218 78.4902 97.5217 78.4902C97.5216 78.4902 97.5215 78.4902 97.5214 78.4902C97.5213 78.4902 97.5212 78.4902 97.5211 78.4902C97.521 78.4902 97.5209 78.4902 97.5208 78.4902C97.5207 78.4902 97.5206 78.4902 97.5205 78.4902C97.5203 78.4902 97.5202 78.4902 97.5201 78.4902C97.52 78.4902 97.5199 78.4902 97.5198 78.4902C97.5197 78.4902 97.5196 78.4902 97.5195 78.4902C97.5194 78.4902 97.5193 78.4902 97.5192 78.4902C97.519 78.4902 97.5189 78.4902 97.5188 78.4902C97.5187 78.4902 97.5186 78.4902 97.5185 78.4902C97.5184 78.4902 97.5183 78.4902 97.5182 78.4902C97.5181 78.4902 97.5179 78.4902 97.5178 78.4902C97.5177 78.4902 97.5176 78.4902 97.5175 78.4902C97.5174 78.4902 97.5173 78.4902 97.5172 78.4902C97.5171 78.4902 97.5169 78.4902 97.5168 78.4902C97.5167 78.4902 97.5166 78.4902 97.5165 78.4902C97.5164 78.4902 97.5163 78.4902 97.5162 78.4902C97.516 78.4902 97.5159 78.4902 97.5158 78.4902C97.5157 78.4902 97.5156 78.4902 97.5155 78.4902C97.5154 78.4902 97.5152 78.4902 97.5151 78.4902C97.515 78.4902 97.5149 78.4902 97.5148 78.4902C97.5147 78.4902 97.5146 78.4902 97.5144 78.4902C97.5143 78.4902 97.5142 78.4902 97.5141 78.4902C97.514 78.4902 97.5139 78.4902 97.5137 78.4902C97.5136 78.4902 97.5135 78.4902 97.5134 78.4902C97.5133 78.4902 97.5132 78.4902 97.513 78.4902C97.5129 78.4902 97.5128 78.4902 97.5127 78.4902C97.5126 78.4902 97.5124 78.4902 97.5123 78.4902C97.5122 78.4902 97.5121 78.4902 97.512 78.4902C97.5119 78.4902 97.5117 78.4902 97.5116 78.4902C97.5115 78.4902 97.5114 78.4902 97.5113 78.4902C97.5111 78.4902 97.511 78.4902 97.5109 78.4902C97.5108 78.4902 97.5107 78.4902 97.5105 78.4902C97.5104 78.4902 97.5103 78.4902 97.5102 78.4902C97.5101 78.4902 97.5099 78.4902 97.5098 78.4902C97.5097 78.4902 97.5096 78.4902 97.5094 78.4902C97.5093 78.4902 97.5092 78.4902 97.5091 78.4902C97.509 78.4902 97.5088 78.4902 97.5087 78.4902C97.5086 78.4902 97.5085 78.4902 97.5083 78.4902C97.5082 78.4902 97.5081 78.4902 97.508 78.4902C97.5079 78.4902 97.5077 78.4902 97.5076 78.4902C97.5075 78.4902 97.5074 78.4902 97.5072 78.4902C97.5071 78.4902 97.507 78.4902 97.5069 78.4902C97.5067 78.4902 97.5066 78.4902 97.5065 78.4902C97.5064 78.4902 97.5062 78.4902 97.5061 78.4902C97.506 78.4902 97.5058 78.4902 97.5057 78.4902C97.5056 78.4902 97.5055 78.4902 97.5053 78.4902C97.5052 78.4902 97.5051 78.4902 97.505 78.4902C97.5048 78.4902 97.5047 78.4902 97.5046 78.4902C97.5044 78.4902 97.5043 78.4902 97.5042 78.4902C97.5041 78.4902 97.5039 78.4902 97.5038 78.4902C97.5037 78.4902 97.5035 78.4902 97.5034 78.4902C97.5033 78.4902 97.5032 78.4902 97.503 78.4902C97.5029 78.4902 97.5028 78.4902 97.5026 78.4902C97.5025 78.4902 97.5024 78.4902 97.5022 78.4902C97.5021 78.4902 97.502 78.4902 97.5019 78.4902C97.5017 78.4902 97.5016 78.4902 97.5015 78.4902C97.5013 78.4902 97.5012 78.4902 97.5011 78.4902C97.5009 78.4902 97.5008 78.4902 97.5007 78.4902C97.5005 78.4902 97.5004 78.4902 97.5003 78.4902C97.5001 78.4902 97.5 78.4902 97.4999 78.4902C97.4997 78.4902 97.4996 78.4902 97.4995 78.4902C97.4993 78.4902 97.4992 78.4902 97.4991 78.4902C97.4989 78.4902 97.4988 78.4902 97.4987 78.4902C97.4985 78.4902 97.4984 78.4902 97.4983 78.4902C97.4981 78.4902 97.498 78.4902 97.4979 78.4902C97.4977 78.4902 97.4976 78.4902 97.4974 78.4902C97.4973 78.4902 97.4972 78.4902 97.497 78.4902C97.4969 78.4902 97.4968 78.4902 97.4966 78.4902C97.4965 78.4902 97.4964 78.4902 97.4962 78.4902C97.4961 78.4902 97.4959 78.4902 97.4958 78.4902C97.4957 78.4902 97.4955 78.4902 97.4954 78.4902C97.4952 78.4902 97.4951 78.4902 97.495 78.4902C97.4948 78.4902 97.4947 78.4902 97.4946 78.4902C97.4944 78.4902 97.4943 78.4902 97.4941 78.4902C97.494 78.4902 97.4939 78.4902 97.4937 78.4902C97.4936 78.4902 97.4934 78.4902 97.4933 78.4902C97.4932 78.4902 97.493 78.4902 97.4929 78.4902C97.4927 78.4902 97.4926 78.4902 97.4924 78.4902C97.4923 78.4902 97.4922 78.4902 97.492 78.4902C97.4919 78.4902 97.4917 78.4902 97.4916 78.4902C97.4915 78.4902 97.4913 78.4902 97.4912 78.4902C97.491 78.4902 97.4909 78.4902 97.4907 78.4902C97.4906 78.4902 97.4904 78.4902 97.4903 78.4902C97.4902 78.4902 97.49 78.4902 97.4899 78.4902C97.4897 78.4902 97.4896 78.4902 97.4894 78.4902C97.4893 78.4902 97.4891 78.4902 97.489 78.4902C97.4889 78.4902 97.4887 78.4902 97.4886 78.4902C97.4884 78.4902 97.4883 78.4902 97.4881 78.4902C97.488 78.4902 97.4878 78.4902 97.4877 78.4902C97.4875 78.4902 97.4874 78.4902 97.4872 78.4902C97.4871 78.4902 97.487 78.4902 97.4868 78.4902C97.4867 78.4902 97.4865 78.4902 97.4864 78.4902C97.4862 78.4902 97.4861 78.4902 97.4859 78.4902C97.4858 78.4902 97.4856 78.4902 97.4855 78.4902C97.4853 78.4902 97.4852 78.4902 97.485 78.4902C97.4849 78.4902 97.4847 78.4902 97.4846 78.4902C97.4844 78.4902 97.4843 78.4902 97.4841 78.4902C97.484 78.4902 97.4838 78.4902 97.4837 78.4902C97.4835 78.4902 97.4834 78.4902 97.4832 78.4902C97.4831 78.4902 97.4829 78.4902 97.4828 78.4902C97.4826 78.4902 97.4825 78.4902 97.4823 78.4902C97.4822 78.4902 97.482 78.4902 97.4819 78.4902C97.4817 78.4902 97.4815 78.4902 97.4814 78.4902C97.4812 78.4902 97.4811 78.4902 97.4809 78.4902C97.4808 78.4902 97.4806 78.4902 97.4805 78.4902C97.4803 78.4902 97.4802 78.4902 97.48 78.4902C97.4799 78.4902 97.4797 78.4902 97.4795 78.4902C97.4794 78.4902 97.4792 78.4902 97.4791 78.4902C97.4789 78.4902 97.4788 78.4902 97.4786 78.4902C97.4785 78.4902 97.4783 78.4902 97.4781 78.4902C97.478 78.4902 97.4778 78.4902 97.4777 78.4902C97.4775 78.4902 97.4774 78.4902 97.4772 78.4902C97.477 78.4902 97.4769 78.4902 97.4767 78.4902C97.4766 78.4902 97.4764 78.4902 97.4763 78.4902C97.4761 78.4902 97.4759 78.4902 97.4758 78.4902C97.4756 78.4902 97.4755 78.4902 97.4753 78.4902C97.4752 78.4902 97.475 78.4902 97.4748 78.4902C97.4747 78.4902 97.4745 78.4902 97.4744 78.4902C97.4742 78.4902 97.474 78.4902 97.4739 78.4902C97.4737 78.4902 97.4736 78.4902 97.4734 78.4902C97.4732 78.4902 97.4731 78.4902 97.4729 78.4902C97.4727 78.4902 97.4726 78.4902 97.4724 78.4902C97.4723 78.4902 97.4721 78.4902 97.4719 78.4902C97.4718 78.4902 97.4716 78.4902 97.4714 78.4902C97.4713 78.4902 97.4711 78.4902 97.471 78.4902C97.4708 78.4902 97.4706 78.4902 97.4705 78.4902C97.4703 78.4902 97.4701 78.4902 97.47 78.4902C97.4698 78.4902 97.4697 78.4902 97.4695 78.4902C97.4693 78.4902 97.4692 78.4902 97.469 78.4902C97.4688 78.4902 97.4687 78.4902 97.4685 78.4902C97.4683 78.4902 97.4682 78.4902 97.468 78.4902C97.4678 78.4902 97.4677 78.4902 97.4675 78.4902C97.4673 78.4902 97.4672 78.4902 97.467 78.4902C97.4668 78.4902 97.4667 78.4902 97.4665 78.4902C97.4663 78.4902 97.4662 78.4902 97.466 78.4902C97.4658 78.4902 97.4657 78.4902 97.4655 78.4902C97.4653 78.4902 97.4652 78.4902 97.465 78.4902C97.4648 78.4902 97.4647 78.4902 97.4645 78.4902C97.4643 78.4902 97.4641 78.4902 97.464 78.4902C97.4638 78.4902 97.4636 78.4902 97.4635 78.4902C97.4633 78.4902 97.4631 78.4902 97.463 78.4902C97.4628 78.4902 97.4626 78.4902 97.4624 78.4902C97.4623 78.4902 97.4621 78.4902 97.4619 78.4902C97.4618 78.4902 97.4616 78.4902 97.4614 78.4902C97.4612 78.4902 97.4611 78.4902 97.4609 78.4902C97.4607 78.4902 97.4606 78.4902 97.4604 78.4902C97.4602 78.4902 97.46 78.4902 97.4599 78.4902C97.4597 78.4902 97.4595 78.4902 97.4593 78.4902C97.4592 78.4902 97.459 78.4902 97.4588 78.4902C97.4586 78.4902 97.4585 78.4902 97.4583 78.4902C97.4581 78.4902 97.4579 78.4902 97.4578 78.4902C97.4576 78.4902 97.4574 78.4902 97.4572 78.4902C97.4571 78.4902 97.4569 78.4902 97.4567 78.4902C97.4565 78.4902 97.4564 78.4902 97.4562 78.4902C97.456 78.4902 97.4558 78.4902 97.4557 78.4902C97.4555 78.4902 97.4553 78.4902 97.4551 78.4902C97.455 78.4902 97.4548 78.4902 97.4546 78.4902C97.4544 78.4902 97.4542 78.4902 97.4541 78.4902C97.4539 78.4902 97.4537 78.4902 97.4535 78.4902C97.4533 78.4902 97.4532 78.4902 97.453 78.4902C97.4528 78.4902 97.4526 78.4902 97.4525 78.4902C97.4523 78.4902 97.4521 78.4902 97.4519 78.4902C97.4517 78.4902 97.4516 78.4902 97.4514 78.4902C97.4512 78.4902 97.451 78.4902 97.4508 78.4902C97.4506 78.4902 97.4505 78.4902 97.4503 78.4902C97.4501 78.4902 97.4499 78.4902 97.4497 78.4902C97.4496 78.4902 97.4494 78.4902 97.4492 78.4902C97.449 78.4902 97.4488 78.4902 97.4486 78.4902C97.4485 78.4902 97.4483 78.4902 97.4481 78.4902C97.4479 78.4902 97.4477 78.4902 97.4475 78.4902C97.4474 78.4902 97.4472 78.4902 97.447 78.4902C97.4468 78.4902 97.4466 78.4902 97.4464 78.4902C97.4463 78.4902 97.4461 78.4902 97.4459 78.4902C97.4457 78.4902 97.4455 78.4902 97.4453 78.4902C97.4451 78.4902 97.445 78.4902 97.4448 78.4902C97.4446 78.4902 97.4444 78.4902 97.4442 78.4902C97.444 78.4902 97.4438 78.4902 97.4437 78.4902C97.4435 78.4902 97.4433 78.4902 97.4431 78.4902C97.4429 78.4902 97.4427 78.4902 97.4425 78.4902C97.4423 78.4902 97.4422 78.4902 97.442 78.4902C97.4418 78.4902 97.4416 78.4902 97.4414 78.4902C97.4412 78.4902 97.441 78.4902 97.4408 78.4902C97.4406 78.4902 97.4405 78.4902 97.4403 78.4902C97.4401 78.4902 97.4399 78.4902 97.4397 78.4902C97.4395 78.4902 97.4393 78.4902 97.4391 78.4902C97.4389 78.4902 97.4387 78.4902 97.4385 78.4902C97.4384 78.4902 97.4382 78.4902 97.438 78.4902C97.4378 78.4902 97.4376 78.4902 97.4374 78.4902C97.4372 78.4902 97.437 78.4902 97.4368 78.4902C97.4366 78.4902 97.4364 78.4902 97.4362 78.4902C97.4361 78.4902 97.4359 78.4902 97.4357 78.4902C97.4355 78.4902 97.4353 78.4902 97.4351 78.4902C97.4349 78.4902 97.4347 78.4902 97.4345 78.4902C97.4343 78.4902 97.4341 78.4902 97.4339 78.4902C97.4337 78.4902 97.4335 78.4902 97.4333 78.4902C97.4331 78.4902 97.4329 78.4902 97.4327 78.4902C97.4326 78.4902 97.4324 78.4902 97.4322 78.4902C97.432 78.4902 97.4318 78.4902 97.4316 78.4902C97.4314 78.4902 97.4312 78.4902 97.431 78.4902C97.4308 78.4902 97.4306 78.4902 97.4304 78.4902C97.4302 78.4902 97.43 78.4902 97.4298 78.4902C97.4296 78.4902 97.4294 78.4902 97.4292 78.4902C97.429 78.4902 97.4288 78.4902 97.4286 78.4902C97.4284 78.4902 97.4282 78.4902 97.428 78.4902C97.4278 78.4902 97.4276 78.4902 97.4274 78.4902C97.4272 78.4902 97.427 78.4902 97.4268 78.4902C97.4266 78.4902 97.4264 78.4902 97.4262 78.4902C97.426 78.4902 97.4258 78.4902 97.4256 78.4902C97.4254 78.4902 97.4252 78.4902 97.425 78.4902C97.4248 78.4902 97.4246 78.4902 97.4244 78.4902C97.4242 78.4902 97.424 78.4902 97.4238 78.4902C97.4236 78.4902 97.4234 78.4902 97.4232 78.4902C97.423 78.4902 97.4228 78.4902 97.4226 78.4902C97.4224 78.4902 97.4222 78.4902 97.422 78.4902C97.4218 78.4902 97.4216 78.4902 97.4213 78.4902C97.4211 78.4902 97.4209 78.4902 97.4207 78.4902C97.4205 78.4902 97.4203 78.4902 97.4201 78.4902C97.4199 78.4902 97.4197 78.4902 97.4195 78.4902C97.4193 78.4902 97.4191 78.4902 97.4189 78.4902C97.4187 78.4902 97.4185 78.4902 97.4183 78.4902C97.4181 78.4902 97.4179 78.4902 97.4176 78.4902C97.4174 78.4902 97.4172 78.4902 97.417 78.4902C97.4168 78.4902 97.4166 78.4902 97.4164 78.4902C97.4162 78.4902 97.416 78.4902 97.4158 78.4902C97.4156 78.4902 97.4154 78.4902 97.4151 78.4902C97.4149 78.4902 97.4147 78.4902 97.4145 78.4902C97.4143 78.4902 97.4141 78.4902 97.4139 78.4902C97.4137 78.4902 97.4135 78.4902 97.4133 78.4902C97.4131 78.4902 97.4128 78.4902 97.4126 78.4902C97.4124 78.4902 97.4122 78.4902 97.412 78.4902C97.4118 78.4902 97.4116 78.4902 97.4114 78.4902C97.4112 78.4902 97.4109 78.4902 97.4107 78.4902C97.4105 78.4902 97.4103 78.4902 97.4101 78.4902C97.4099 78.4902 97.4097 78.4902 97.4095 78.4902C97.4092 78.4902 97.409 78.4902 97.4088 78.4902C97.4086 78.4902 97.4084 78.4902 97.4082 78.4902C97.408 78.4902 97.4077 78.4902 97.4075 78.4902C97.4073 78.4902 97.4071 78.4902 97.4069 78.4902C97.4067 78.4902 97.4065 78.4902 97.4062 78.4902C97.406 78.4902 97.4058 78.4902 97.4056 78.4902C97.4054 78.4902 97.4052 78.4902 97.4049 78.4902C97.4047 78.4902 97.4045 78.4902 97.4043 78.4902C97.4041 78.4902 97.4039 78.4902 97.4036 78.4902C97.4034 78.4902 97.4032 78.4902 97.403 78.4902C97.4028 78.4902 97.4026 78.4902 97.4023 78.4902C97.4021 78.4902 97.4019 78.4902 97.4017 78.4902C97.4015 78.4902 97.4012 78.4902 97.401 78.4902C97.4008 78.4902 97.4006 78.4902 97.4004 78.4902C97.4002 78.4902 97.3999 78.4902 97.3997 78.4902C97.3995 78.4902 97.3993 78.4902 97.3991 78.4902C97.3988 78.4902 97.3986 78.4902 97.3984 78.4902C97.3982 78.4902 97.3979 78.4902 97.3977 78.4902C97.3975 78.4902 97.3973 78.4902 97.3971 78.4902C97.3968 78.4902 97.3966 78.4902 97.3964 78.4902C97.3962 78.4902 97.396 78.4902 97.3957 78.4902C97.3955 78.4902 97.3953 78.4902 97.3951 78.4902C97.3948 78.4902 97.3946 78.4902 97.3944 78.4902C97.3942 78.4902 97.3939 78.4902 97.3937 78.4902C97.3935 78.4902 97.3933 78.4902 97.393 78.4902C97.3928 78.4902 97.3926 78.4902 97.3924 78.4902C97.3921 78.4902 97.3919 78.4902 97.3917 78.4902C97.3915 78.4902 97.3912 78.4902 97.391 78.4902C97.3908 78.4902 97.3906 78.4902 97.3903 78.4902C97.3901 78.4902 97.3899 78.4902 97.3897 78.4902C97.3894 78.4902 97.3892 78.4902 97.389 78.4902C97.3888 78.4902 97.3885 78.4902 97.3883 78.4902C97.3881 78.4902 97.3878 78.4902 97.3876 78.4902C97.3874 78.4902 97.3872 78.4902 97.3869 78.4902C97.3867 78.4902 97.3865 78.4902 97.3862 78.4902C97.386 78.4902 97.3858 78.4902 97.3856 78.4902C97.3853 78.4902 97.3851 78.4902 97.3849 78.4902C97.3846 78.4902 97.3844 78.4902 97.3842 78.4902C97.3839 78.4902 97.3837 78.4902 97.3835 78.4902C97.3833 78.4902 97.383 78.4902 97.3828 78.4902C97.3826 78.4902 97.3823 78.4902 97.3821 78.4902C97.3819 78.4902 97.3816 78.4902 97.3814 78.4902C97.3812 78.4902 97.3809 78.4902 97.3807 78.4902C97.3805 78.4902 97.3802 78.4902 97.38 78.4902C97.3798 78.4902 97.3795 78.4902 97.3793 78.4902C97.3791 78.4902 97.3788 78.4902 97.3786 78.4902C97.3784 78.4902 97.3781 78.4902 97.3779 78.4902C97.3777 78.4902 97.3774 78.4902 97.3772 78.4902C97.377 78.4902 97.3767 78.4902 97.3765 78.4902C97.3763 78.4902 97.376 78.4902 97.3758 78.4902C97.3755 78.4902 97.3753 78.4902 97.3751 78.4902C97.3748 78.4902 97.3746 78.4902 97.3744 78.4902C97.3741 78.4902 97.3739 78.4902 97.3737 78.4902C97.3734 78.4902 97.3732 78.4902 97.3729 78.4902C97.3727 78.4902 97.3725 78.4902 97.3722 78.4902C97.372 78.4902 97.3717 78.4902 97.3715 78.4902C97.3713 78.4902 97.371 78.4902 97.3708 78.4902C97.3706 78.4902 97.3703 78.4902 97.3701 78.4902C97.3698 78.4902 97.3696 78.4902 97.3694 78.4902C97.3691 78.4902 97.3689 78.4902 97.3686 78.4902C97.3684 78.4902 97.3682 78.4902 97.3679 78.4902C97.3677 78.4902 97.3674 78.4902 97.3672 78.4902C97.3669 78.4902 97.3667 78.4902 97.3665 78.4902C97.3662 78.4902 97.366 78.4902 97.3657 78.4902C97.3655 78.4902 97.3653 78.4902 97.365 78.4902C97.3648 78.4902 97.3645 78.4902 97.3643 78.4902C97.364 78.4902 97.3638 78.4902 97.3635 78.4902C97.3633 78.4902 97.3631 78.4902 97.3628 78.4902C97.3626 78.4902 97.3623 78.4902 97.3621 78.4902C97.3618 78.4902 97.3616 78.4902 97.3613 78.4902C97.3611 78.4902 97.3609 78.4902 97.3606 78.4902C97.3604 78.4902 97.3601 78.4902 97.3599 78.4902C97.3596 78.4902 97.3594 78.4902 97.3591 78.4902C97.3589 78.4902 97.3586 78.4902 97.3584 78.4902C97.3582 78.4902 97.3579 78.4902 97.3577 78.4902C97.3574 78.4902 97.3572 78.4902 97.3569 78.4902C97.3567 78.4902 97.3564 78.4902 97.3562 78.4902C97.3559 78.4902 97.3557 78.4902 97.3554 78.4902C97.3552 78.4902 97.3549 78.4902 97.3547 78.4902C97.3544 78.4902 97.3542 78.4902 97.3539 78.4902C97.3537 78.4902 97.3534 78.4902 97.3532 78.4902C97.3529 78.4902 97.3527 78.4902 97.3524 78.4902C97.3522 78.4902 97.3519 78.4902 97.3517 78.4902C97.3514 78.4902 97.3512 78.4902 97.3509 78.4902C97.3507 78.4902 97.3504 78.4902 97.3502 78.4902C97.3499 78.4902 97.3497 78.4902 97.3494 78.4902C97.3492 78.4902 97.3489 78.4902 97.3487 78.4902C97.3484 78.4902 97.3481 78.4902 97.3479 78.4902C97.3476 78.4902 97.3474 78.4902 97.3471 78.4902C97.3469 78.4902 97.3466 78.4902 97.3464 78.4902C97.3461 78.4902 97.3459 78.4902 97.3456 78.4902C97.3454 78.4902 97.3451 78.4902 97.3448 78.4902C97.3446 78.4902 97.3443 78.4902 97.3441 78.4902C97.3438 78.4902 97.3436 78.4902 97.3433 78.4902C97.3431 78.4902 97.3428 78.4902 97.3425 78.4902C97.3423 78.4902 97.342 78.4902 97.3418 78.4902C97.3415 78.4902 97.3413 78.4902 97.341 78.4902C97.3407 78.4902 97.3405 78.4902 97.3402 78.4902C97.34 78.4902 97.3397 78.4902 97.3394 78.4902C97.3392 78.4902 97.3389 78.4902 97.3387 78.4902C97.3384 78.4902 97.3382 78.4902 97.3379 78.4902C97.3376 78.4902 97.3374 78.4902 97.3371 78.4902C97.3369 78.4902 97.3366 78.4902 97.3363 78.4902C97.3361 78.4902 97.3358 78.4902 97.3356 78.4902C97.3353 78.4902 97.335 78.4902 97.3348 78.4902C97.3345 78.4902 97.3343 78.4902 97.334 78.4902C97.3337 78.4902 97.3335 78.4902 97.3332 78.4902C97.3329 78.4902 97.3327 78.4902 97.3324 78.4902C97.3322 78.4902 97.3319 78.4902 97.3316 78.4902C97.3314 78.4902 97.3311 78.4902 97.3308 78.4902C97.3306 78.4902 97.3303 78.4902 97.33 78.4902C97.3298 78.4902 97.3295 78.4902 97.3293 78.4902C97.329 78.4902 97.3287 78.4902 97.3285 78.4902C97.3282 78.4902 97.3279 78.4902 97.3277 78.4902C97.3274 78.4902 97.3271 78.4902 97.3269 78.4902C97.3266 78.4902 97.3263 78.4902 97.3261 78.4902C97.3258 78.4902 97.3255 78.4902 97.3253 78.4902C97.325 78.4902 97.3247 78.4902 97.3245 78.4902C97.3242 78.4902 97.3239 78.4902 97.3237 78.4902C97.3234 78.4902 97.3231 78.4902 97.3229 78.4902C97.3226 78.4902 97.3223 78.4902 97.3221 78.4902C97.3218 78.4902 97.3215 78.4902 97.3213 78.4902C97.321 78.4902 97.3207 78.4902 97.3205 78.4902C97.3202 78.4902 97.3199 78.4902 97.3196 78.4902C97.3194 78.4902 97.3191 78.4902 97.3188 78.4902C97.3186 78.4902 97.3183 78.4902 97.318 78.4902C97.3178 78.4902 97.3175 78.4902 97.3172 78.4902C97.3169 78.4902 97.3167 78.4902 97.3164 78.4902C97.3161 78.4902 97.3159 78.4902 97.3156 78.4902C97.3153 78.4902 97.315 78.4902 97.3148 78.4902C97.3145 78.4902 97.3142 78.4902 97.3139 78.4902C97.3137 78.4902 97.3134 78.4902 97.3131 78.4902C97.3129 78.4902 97.3126 78.4902 97.3123 78.4902C97.312 78.4902 97.3118 78.4902 97.3115 78.4902C97.3112 78.4902 97.3109 78.4902 97.3107 78.4902C97.3104 78.4902 97.3101 78.4902 97.3098 78.4902C97.3096 78.4902 97.3093 78.4902 97.309 78.4902C97.3087 78.4902 97.3085 78.4902 97.3082 78.4902C97.3079 78.4902 97.3076 78.4902 97.3073 78.4902C97.3071 78.4902 97.3068 78.4902 97.3065 78.4902C97.3062 78.4902 97.306 78.4902 97.3057 78.4902C97.3054 78.4902 97.3051 78.4902 97.3049 78.4902C97.3046 78.4902 97.3043 78.4902 97.304 78.4902C97.3037 78.4902 97.3035 78.4902 97.3032 78.4902C97.3029 78.4902 97.3026 78.4902 97.3023 78.4902C97.3021 78.4902 97.3018 78.4902 97.3015 78.4902C97.3012 78.4902 97.3009 78.4902 97.3007 78.4902C97.3004 78.4902 97.3001 78.4902 97.2998 78.4902C97.2995 78.4902 97.2993 78.4902 97.299 78.4902V80.4902C97.2993 80.4902 97.2995 80.4902 97.2998 80.4902C97.3001 80.4902 97.3004 80.4902 97.3007 80.4902C97.3009 80.4902 97.3012 80.4902 97.3015 80.4902C97.3018 80.4902 97.3021 80.4902 97.3023 80.4902C97.3026 80.4902 97.3029 80.4902 97.3032 80.4902C97.3035 80.4902 97.3037 80.4902 97.304 80.4902C97.3043 80.4902 97.3046 80.4902 97.3049 80.4902C97.3051 80.4902 97.3054 80.4902 97.3057 80.4902C97.306 80.4902 97.3062 80.4902 97.3065 80.4902C97.3068 80.4902 97.3071 80.4902 97.3073 80.4902C97.3076 80.4902 97.3079 80.4902 97.3082 80.4902C97.3085 80.4902 97.3087 80.4902 97.309 80.4902C97.3093 80.4902 97.3096 80.4902 97.3098 80.4902C97.3101 80.4902 97.3104 80.4902 97.3107 80.4902C97.3109 80.4902 97.3112 80.4902 97.3115 80.4902C97.3118 80.4902 97.312 80.4902 97.3123 80.4902C97.3126 80.4902 97.3129 80.4902 97.3131 80.4902C97.3134 80.4902 97.3137 80.4902 97.3139 80.4902C97.3142 80.4902 97.3145 80.4902 97.3148 80.4902C97.315 80.4902 97.3153 80.4902 97.3156 80.4902C97.3159 80.4902 97.3161 80.4902 97.3164 80.4902C97.3167 80.4902 97.3169 80.4902 97.3172 80.4902C97.3175 80.4902 97.3178 80.4902 97.318 80.4902C97.3183 80.4902 97.3186 80.4902 97.3188 80.4902C97.3191 80.4902 97.3194 80.4902 97.3196 80.4902C97.3199 80.4902 97.3202 80.4902 97.3205 80.4902C97.3207 80.4902 97.321 80.4902 97.3213 80.4902C97.3215 80.4902 97.3218 80.4902 97.3221 80.4902C97.3223 80.4902 97.3226 80.4902 97.3229 80.4902C97.3231 80.4902 97.3234 80.4902 97.3237 80.4902C97.3239 80.4902 97.3242 80.4902 97.3245 80.4902C97.3247 80.4902 97.325 80.4902 97.3253 80.4902C97.3255 80.4902 97.3258 80.4902 97.3261 80.4902C97.3263 80.4902 97.3266 80.4902 97.3269 80.4902C97.3271 80.4902 97.3274 80.4902 97.3277 80.4902C97.3279 80.4902 97.3282 80.4902 97.3285 80.4902C97.3287 80.4902 97.329 80.4902 97.3293 80.4902C97.3295 80.4902 97.3298 80.4902 97.33 80.4902C97.3303 80.4902 97.3306 80.4902 97.3308 80.4902C97.3311 80.4902 97.3314 80.4902 97.3316 80.4902C97.3319 80.4902 97.3322 80.4902 97.3324 80.4902C97.3327 80.4902 97.3329 80.4902 97.3332 80.4902C97.3335 80.4902 97.3337 80.4902 97.334 80.4902C97.3343 80.4902 97.3345 80.4902 97.3348 80.4902C97.335 80.4902 97.3353 80.4902 97.3356 80.4902C97.3358 80.4902 97.3361 80.4902 97.3363 80.4902C97.3366 80.4902 97.3369 80.4902 97.3371 80.4902C97.3374 80.4902 97.3376 80.4902 97.3379 80.4902C97.3382 80.4902 97.3384 80.4902 97.3387 80.4902C97.3389 80.4902 97.3392 80.4902 97.3394 80.4902C97.3397 80.4902 97.34 80.4902 97.3402 80.4902C97.3405 80.4902 97.3407 80.4902 97.341 80.4902C97.3413 80.4902 97.3415 80.4902 97.3418 80.4902C97.342 80.4902 97.3423 80.4902 97.3425 80.4902C97.3428 80.4902 97.3431 80.4902 97.3433 80.4902C97.3436 80.4902 97.3438 80.4902 97.3441 80.4902C97.3443 80.4902 97.3446 80.4902 97.3448 80.4902C97.3451 80.4902 97.3454 80.4902 97.3456 80.4902C97.3459 80.4902 97.3461 80.4902 97.3464 80.4902C97.3466 80.4902 97.3469 80.4902 97.3471 80.4902C97.3474 80.4902 97.3476 80.4902 97.3479 80.4902C97.3481 80.4902 97.3484 80.4902 97.3487 80.4902C97.3489 80.4902 97.3492 80.4902 97.3494 80.4902C97.3497 80.4902 97.3499 80.4902 97.3502 80.4902C97.3504 80.4902 97.3507 80.4902 97.3509 80.4902C97.3512 80.4902 97.3514 80.4902 97.3517 80.4902C97.3519 80.4902 97.3522 80.4902 97.3524 80.4902C97.3527 80.4902 97.3529 80.4902 97.3532 80.4902C97.3534 80.4902 97.3537 80.4902 97.3539 80.4902C97.3542 80.4902 97.3544 80.4902 97.3547 80.4902C97.3549 80.4902 97.3552 80.4902 97.3554 80.4902C97.3557 80.4902 97.3559 80.4902 97.3562 80.4902C97.3564 80.4902 97.3567 80.4902 97.3569 80.4902C97.3572 80.4902 97.3574 80.4902 97.3577 80.4902C97.3579 80.4902 97.3582 80.4902 97.3584 80.4902C97.3586 80.4902 97.3589 80.4902 97.3591 80.4902C97.3594 80.4902 97.3596 80.4902 97.3599 80.4902C97.3601 80.4902 97.3604 80.4902 97.3606 80.4902C97.3609 80.4902 97.3611 80.4902 97.3613 80.4902C97.3616 80.4902 97.3618 80.4902 97.3621 80.4902C97.3623 80.4902 97.3626 80.4902 97.3628 80.4902C97.3631 80.4902 97.3633 80.4902 97.3635 80.4902C97.3638 80.4902 97.364 80.4902 97.3643 80.4902C97.3645 80.4902 97.3648 80.4902 97.365 80.4902C97.3653 80.4902 97.3655 80.4902 97.3657 80.4902C97.366 80.4902 97.3662 80.4902 97.3665 80.4902C97.3667 80.4902 97.3669 80.4902 97.3672 80.4902C97.3674 80.4902 97.3677 80.4902 97.3679 80.4902C97.3682 80.4902 97.3684 80.4902 97.3686 80.4902C97.3689 80.4902 97.3691 80.4902 97.3694 80.4902C97.3696 80.4902 97.3698 80.4902 97.3701 80.4902C97.3703 80.4902 97.3706 80.4902 97.3708 80.4902C97.371 80.4902 97.3713 80.4902 97.3715 80.4902C97.3717 80.4902 97.372 80.4902 97.3722 80.4902C97.3725 80.4902 97.3727 80.4902 97.3729 80.4902C97.3732 80.4902 97.3734 80.4902 97.3737 80.4902C97.3739 80.4902 97.3741 80.4902 97.3744 80.4902C97.3746 80.4902 97.3748 80.4902 97.3751 80.4902C97.3753 80.4902 97.3755 80.4902 97.3758 80.4902C97.376 80.4902 97.3763 80.4902 97.3765 80.4902C97.3767 80.4902 97.377 80.4902 97.3772 80.4902C97.3774 80.4902 97.3777 80.4902 97.3779 80.4902C97.3781 80.4902 97.3784 80.4902 97.3786 80.4902C97.3788 80.4902 97.3791 80.4902 97.3793 80.4902C97.3795 80.4902 97.3798 80.4902 97.38 80.4902C97.3802 80.4902 97.3805 80.4902 97.3807 80.4902C97.3809 80.4902 97.3812 80.4902 97.3814 80.4902C97.3816 80.4902 97.3819 80.4902 97.3821 80.4902C97.3823 80.4902 97.3826 80.4902 97.3828 80.4902C97.383 80.4902 97.3833 80.4902 97.3835 80.4902C97.3837 80.4902 97.3839 80.4902 97.3842 80.4902C97.3844 80.4902 97.3846 80.4902 97.3849 80.4902C97.3851 80.4902 97.3853 80.4902 97.3856 80.4902C97.3858 80.4902 97.386 80.4902 97.3862 80.4902C97.3865 80.4902 97.3867 80.4902 97.3869 80.4902C97.3872 80.4902 97.3874 80.4902 97.3876 80.4902C97.3878 80.4902 97.3881 80.4902 97.3883 80.4902C97.3885 80.4902 97.3888 80.4902 97.389 80.4902C97.3892 80.4902 97.3894 80.4902 97.3897 80.4902C97.3899 80.4902 97.3901 80.4902 97.3903 80.4902C97.3906 80.4902 97.3908 80.4902 97.391 80.4902C97.3912 80.4902 97.3915 80.4902 97.3917 80.4902C97.3919 80.4902 97.3921 80.4902 97.3924 80.4902C97.3926 80.4902 97.3928 80.4902 97.393 80.4902C97.3933 80.4902 97.3935 80.4902 97.3937 80.4902C97.3939 80.4902 97.3942 80.4902 97.3944 80.4902C97.3946 80.4902 97.3948 80.4902 97.3951 80.4902C97.3953 80.4902 97.3955 80.4902 97.3957 80.4902C97.396 80.4902 97.3962 80.4902 97.3964 80.4902C97.3966 80.4902 97.3968 80.4902 97.3971 80.4902C97.3973 80.4902 97.3975 80.4902 97.3977 80.4902C97.3979 80.4902 97.3982 80.4902 97.3984 80.4902C97.3986 80.4902 97.3988 80.4902 97.3991 80.4902C97.3993 80.4902 97.3995 80.4902 97.3997 80.4902C97.3999 80.4902 97.4002 80.4902 97.4004 80.4902C97.4006 80.4902 97.4008 80.4902 97.401 80.4902C97.4012 80.4902 97.4015 80.4902 97.4017 80.4902C97.4019 80.4902 97.4021 80.4902 97.4023 80.4902C97.4026 80.4902 97.4028 80.4902 97.403 80.4902C97.4032 80.4902 97.4034 80.4902 97.4036 80.4902C97.4039 80.4902 97.4041 80.4902 97.4043 80.4902C97.4045 80.4902 97.4047 80.4902 97.4049 80.4902C97.4052 80.4902 97.4054 80.4902 97.4056 80.4902C97.4058 80.4902 97.406 80.4902 97.4062 80.4902C97.4065 80.4902 97.4067 80.4902 97.4069 80.4902C97.4071 80.4902 97.4073 80.4902 97.4075 80.4902C97.4077 80.4902 97.408 80.4902 97.4082 80.4902C97.4084 80.4902 97.4086 80.4902 97.4088 80.4902C97.409 80.4902 97.4092 80.4902 97.4095 80.4902C97.4097 80.4902 97.4099 80.4902 97.4101 80.4902C97.4103 80.4902 97.4105 80.4902 97.4107 80.4902C97.4109 80.4902 97.4112 80.4902 97.4114 80.4902C97.4116 80.4902 97.4118 80.4902 97.412 80.4902C97.4122 80.4902 97.4124 80.4902 97.4126 80.4902C97.4128 80.4902 97.4131 80.4902 97.4133 80.4902C97.4135 80.4902 97.4137 80.4902 97.4139 80.4902C97.4141 80.4902 97.4143 80.4902 97.4145 80.4902C97.4147 80.4902 97.4149 80.4902 97.4151 80.4902C97.4154 80.4902 97.4156 80.4902 97.4158 80.4902C97.416 80.4902 97.4162 80.4902 97.4164 80.4902C97.4166 80.4902 97.4168 80.4902 97.417 80.4902C97.4172 80.4902 97.4174 80.4902 97.4176 80.4902C97.4179 80.4902 97.4181 80.4902 97.4183 80.4902C97.4185 80.4902 97.4187 80.4902 97.4189 80.4902C97.4191 80.4902 97.4193 80.4902 97.4195 80.4902C97.4197 80.4902 97.4199 80.4902 97.4201 80.4902C97.4203 80.4902 97.4205 80.4902 97.4207 80.4902C97.4209 80.4902 97.4211 80.4902 97.4213 80.4902C97.4216 80.4902 97.4218 80.4902 97.422 80.4902C97.4222 80.4902 97.4224 80.4902 97.4226 80.4902C97.4228 80.4902 97.423 80.4902 97.4232 80.4902C97.4234 80.4902 97.4236 80.4902 97.4238 80.4902C97.424 80.4902 97.4242 80.4902 97.4244 80.4902C97.4246 80.4902 97.4248 80.4902 97.425 80.4902C97.4252 80.4902 97.4254 80.4902 97.4256 80.4902C97.4258 80.4902 97.426 80.4902 97.4262 80.4902C97.4264 80.4902 97.4266 80.4902 97.4268 80.4902C97.427 80.4902 97.4272 80.4902 97.4274 80.4902C97.4276 80.4902 97.4278 80.4902 97.428 80.4902C97.4282 80.4902 97.4284 80.4902 97.4286 80.4902C97.4288 80.4902 97.429 80.4902 97.4292 80.4902C97.4294 80.4902 97.4296 80.4902 97.4298 80.4902C97.43 80.4902 97.4302 80.4902 97.4304 80.4902C97.4306 80.4902 97.4308 80.4902 97.431 80.4902C97.4312 80.4902 97.4314 80.4902 97.4316 80.4902C97.4318 80.4902 97.432 80.4902 97.4322 80.4902C97.4324 80.4902 97.4326 80.4902 97.4327 80.4902C97.4329 80.4902 97.4331 80.4902 97.4333 80.4902C97.4335 80.4902 97.4337 80.4902 97.4339 80.4902C97.4341 80.4902 97.4343 80.4902 97.4345 80.4902C97.4347 80.4902 97.4349 80.4902 97.4351 80.4902C97.4353 80.4902 97.4355 80.4902 97.4357 80.4902C97.4359 80.4902 97.4361 80.4902 97.4362 80.4902C97.4364 80.4902 97.4366 80.4902 97.4368 80.4902C97.437 80.4902 97.4372 80.4902 97.4374 80.4902C97.4376 80.4902 97.4378 80.4902 97.438 80.4902C97.4382 80.4902 97.4384 80.4902 97.4385 80.4902C97.4387 80.4902 97.4389 80.4902 97.4391 80.4902C97.4393 80.4902 97.4395 80.4902 97.4397 80.4902C97.4399 80.4902 97.4401 80.4902 97.4403 80.4902C97.4405 80.4902 97.4406 80.4902 97.4408 80.4902C97.441 80.4902 97.4412 80.4902 97.4414 80.4902C97.4416 80.4902 97.4418 80.4902 97.442 80.4902C97.4422 80.4902 97.4423 80.4902 97.4425 80.4902C97.4427 80.4902 97.4429 80.4902 97.4431 80.4902C97.4433 80.4902 97.4435 80.4902 97.4437 80.4902C97.4438 80.4902 97.444 80.4902 97.4442 80.4902C97.4444 80.4902 97.4446 80.4902 97.4448 80.4902C97.445 80.4902 97.4451 80.4902 97.4453 80.4902C97.4455 80.4902 97.4457 80.4902 97.4459 80.4902C97.4461 80.4902 97.4463 80.4902 97.4464 80.4902C97.4466 80.4902 97.4468 80.4902 97.447 80.4902C97.4472 80.4902 97.4474 80.4902 97.4475 80.4902C97.4477 80.4902 97.4479 80.4902 97.4481 80.4902C97.4483 80.4902 97.4485 80.4902 97.4486 80.4902C97.4488 80.4902 97.449 80.4902 97.4492 80.4902C97.4494 80.4902 97.4496 80.4902 97.4497 80.4902C97.4499 80.4902 97.4501 80.4902 97.4503 80.4902C97.4505 80.4902 97.4506 80.4902 97.4508 80.4902C97.451 80.4902 97.4512 80.4902 97.4514 80.4902C97.4516 80.4902 97.4517 80.4902 97.4519 80.4902C97.4521 80.4902 97.4523 80.4902 97.4525 80.4902C97.4526 80.4902 97.4528 80.4902 97.453 80.4902C97.4532 80.4902 97.4533 80.4902 97.4535 80.4902C97.4537 80.4902 97.4539 80.4902 97.4541 80.4902C97.4542 80.4902 97.4544 80.4902 97.4546 80.4902C97.4548 80.4902 97.455 80.4902 97.4551 80.4902C97.4553 80.4902 97.4555 80.4902 97.4557 80.4902C97.4558 80.4902 97.456 80.4902 97.4562 80.4902C97.4564 80.4902 97.4565 80.4902 97.4567 80.4902C97.4569 80.4902 97.4571 80.4902 97.4572 80.4902C97.4574 80.4902 97.4576 80.4902 97.4578 80.4902C97.4579 80.4902 97.4581 80.4902 97.4583 80.4902C97.4585 80.4902 97.4586 80.4902 97.4588 80.4902C97.459 80.4902 97.4592 80.4902 97.4593 80.4902C97.4595 80.4902 97.4597 80.4902 97.4599 80.4902C97.46 80.4902 97.4602 80.4902 97.4604 80.4902C97.4606 80.4902 97.4607 80.4902 97.4609 80.4902C97.4611 80.4902 97.4612 80.4902 97.4614 80.4902C97.4616 80.4902 97.4618 80.4902 97.4619 80.4902C97.4621 80.4902 97.4623 80.4902 97.4624 80.4902C97.4626 80.4902 97.4628 80.4902 97.463 80.4902C97.4631 80.4902 97.4633 80.4902 97.4635 80.4902C97.4636 80.4902 97.4638 80.4902 97.464 80.4902C97.4641 80.4902 97.4643 80.4902 97.4645 80.4902C97.4647 80.4902 97.4648 80.4902 97.465 80.4902C97.4652 80.4902 97.4653 80.4902 97.4655 80.4902C97.4657 80.4902 97.4658 80.4902 97.466 80.4902C97.4662 80.4902 97.4663 80.4902 97.4665 80.4902C97.4667 80.4902 97.4668 80.4902 97.467 80.4902C97.4672 80.4902 97.4673 80.4902 97.4675 80.4902C97.4677 80.4902 97.4678 80.4902 97.468 80.4902C97.4682 80.4902 97.4683 80.4902 97.4685 80.4902C97.4687 80.4902 97.4688 80.4902 97.469 80.4902C97.4692 80.4902 97.4693 80.4902 97.4695 80.4902C97.4697 80.4902 97.4698 80.4902 97.47 80.4902C97.4701 80.4902 97.4703 80.4902 97.4705 80.4902C97.4706 80.4902 97.4708 80.4902 97.471 80.4902C97.4711 80.4902 97.4713 80.4902 97.4714 80.4902C97.4716 80.4902 97.4718 80.4902 97.4719 80.4902C97.4721 80.4902 97.4723 80.4902 97.4724 80.4902C97.4726 80.4902 97.4727 80.4902 97.4729 80.4902C97.4731 80.4902 97.4732 80.4902 97.4734 80.4902C97.4736 80.4902 97.4737 80.4902 97.4739 80.4902C97.474 80.4902 97.4742 80.4902 97.4744 80.4902C97.4745 80.4902 97.4747 80.4902 97.4748 80.4902C97.475 80.4902 97.4752 80.4902 97.4753 80.4902C97.4755 80.4902 97.4756 80.4902 97.4758 80.4902C97.4759 80.4902 97.4761 80.4902 97.4763 80.4902C97.4764 80.4902 97.4766 80.4902 97.4767 80.4902C97.4769 80.4902 97.477 80.4902 97.4772 80.4902C97.4774 80.4902 97.4775 80.4902 97.4777 80.4902C97.4778 80.4902 97.478 80.4902 97.4781 80.4902C97.4783 80.4902 97.4785 80.4902 97.4786 80.4902C97.4788 80.4902 97.4789 80.4902 97.4791 80.4902C97.4792 80.4902 97.4794 80.4902 97.4795 80.4902C97.4797 80.4902 97.4799 80.4902 97.48 80.4902C97.4802 80.4902 97.4803 80.4902 97.4805 80.4902C97.4806 80.4902 97.4808 80.4902 97.4809 80.4902C97.4811 80.4902 97.4812 80.4902 97.4814 80.4902C97.4815 80.4902 97.4817 80.4902 97.4819 80.4902C97.482 80.4902 97.4822 80.4902 97.4823 80.4902C97.4825 80.4902 97.4826 80.4902 97.4828 80.4902C97.4829 80.4902 97.4831 80.4902 97.4832 80.4902C97.4834 80.4902 97.4835 80.4902 97.4837 80.4902C97.4838 80.4902 97.484 80.4902 97.4841 80.4902C97.4843 80.4902 97.4844 80.4902 97.4846 80.4902C97.4847 80.4902 97.4849 80.4902 97.485 80.4902C97.4852 80.4902 97.4853 80.4902 97.4855 80.4902C97.4856 80.4902 97.4858 80.4902 97.4859 80.4902C97.4861 80.4902 97.4862 80.4902 97.4864 80.4902C97.4865 80.4902 97.4867 80.4902 97.4868 80.4902C97.487 80.4902 97.4871 80.4902 97.4872 80.4902C97.4874 80.4902 97.4875 80.4902 97.4877 80.4902C97.4878 80.4902 97.488 80.4902 97.4881 80.4902C97.4883 80.4902 97.4884 80.4902 97.4886 80.4902C97.4887 80.4902 97.4889 80.4902 97.489 80.4902C97.4891 80.4902 97.4893 80.4902 97.4894 80.4902C97.4896 80.4902 97.4897 80.4902 97.4899 80.4902C97.49 80.4902 97.4902 80.4902 97.4903 80.4902C97.4904 80.4902 97.4906 80.4902 97.4907 80.4902C97.4909 80.4902 97.491 80.4902 97.4912 80.4902C97.4913 80.4902 97.4915 80.4902 97.4916 80.4902C97.4917 80.4902 97.4919 80.4902 97.492 80.4902C97.4922 80.4902 97.4923 80.4902 97.4924 80.4902C97.4926 80.4902 97.4927 80.4902 97.4929 80.4902C97.493 80.4902 97.4932 80.4902 97.4933 80.4902C97.4934 80.4902 97.4936 80.4902 97.4937 80.4902C97.4939 80.4902 97.494 80.4902 97.4941 80.4902C97.4943 80.4902 97.4944 80.4902 97.4946 80.4902C97.4947 80.4902 97.4948 80.4902 97.495 80.4902C97.4951 80.4902 97.4952 80.4902 97.4954 80.4902C97.4955 80.4902 97.4957 80.4902 97.4958 80.4902C97.4959 80.4902 97.4961 80.4902 97.4962 80.4902C97.4964 80.4902 97.4965 80.4902 97.4966 80.4902C97.4968 80.4902 97.4969 80.4902 97.497 80.4902C97.4972 80.4902 97.4973 80.4902 97.4974 80.4902C97.4976 80.4902 97.4977 80.4902 97.4979 80.4902C97.498 80.4902 97.4981 80.4902 97.4983 80.4902C97.4984 80.4902 97.4985 80.4902 97.4987 80.4902C97.4988 80.4902 97.4989 80.4902 97.4991 80.4902C97.4992 80.4902 97.4993 80.4902 97.4995 80.4902C97.4996 80.4902 97.4997 80.4902 97.4999 80.4902C97.5 80.4902 97.5001 80.4902 97.5003 80.4902C97.5004 80.4902 97.5005 80.4902 97.5007 80.4902C97.5008 80.4902 97.5009 80.4902 97.5011 80.4902C97.5012 80.4902 97.5013 80.4902 97.5015 80.4902C97.5016 80.4902 97.5017 80.4902 97.5019 80.4902C97.502 80.4902 97.5021 80.4902 97.5022 80.4902C97.5024 80.4902 97.5025 80.4902 97.5026 80.4902C97.5028 80.4902 97.5029 80.4902 97.503 80.4902C97.5032 80.4902 97.5033 80.4902 97.5034 80.4902C97.5035 80.4902 97.5037 80.4902 97.5038 80.4902C97.5039 80.4902 97.5041 80.4902 97.5042 80.4902C97.5043 80.4902 97.5044 80.4902 97.5046 80.4902C97.5047 80.4902 97.5048 80.4902 97.505 80.4902C97.5051 80.4902 97.5052 80.4902 97.5053 80.4902C97.5055 80.4902 97.5056 80.4902 97.5057 80.4902C97.5058 80.4902 97.506 80.4902 97.5061 80.4902C97.5062 80.4902 97.5064 80.4902 97.5065 80.4902C97.5066 80.4902 97.5067 80.4902 97.5069 80.4902C97.507 80.4902 97.5071 80.4902 97.5072 80.4902C97.5074 80.4902 97.5075 80.4902 97.5076 80.4902C97.5077 80.4902 97.5079 80.4902 97.508 80.4902C97.5081 80.4902 97.5082 80.4902 97.5083 80.4902C97.5085 80.4902 97.5086 80.4902 97.5087 80.4902C97.5088 80.4902 97.509 80.4902 97.5091 80.4902C97.5092 80.4902 97.5093 80.4902 97.5094 80.4902C97.5096 80.4902 97.5097 80.4902 97.5098 80.4902C97.5099 80.4902 97.5101 80.4902 97.5102 80.4902C97.5103 80.4902 97.5104 80.4902 97.5105 80.4902C97.5107 80.4902 97.5108 80.4902 97.5109 80.4902C97.511 80.4902 97.5111 80.4902 97.5113 80.4902C97.5114 80.4902 97.5115 80.4902 97.5116 80.4902C97.5117 80.4902 97.5119 80.4902 97.512 80.4902C97.5121 80.4902 97.5122 80.4902 97.5123 80.4902C97.5124 80.4902 97.5126 80.4902 97.5127 80.4902C97.5128 80.4902 97.5129 80.4902 97.513 80.4902C97.5132 80.4902 97.5133 80.4902 97.5134 80.4902C97.5135 80.4902 97.5136 80.4902 97.5137 80.4902C97.5139 80.4902 97.514 80.4902 97.5141 80.4902C97.5142 80.4902 97.5143 80.4902 97.5144 80.4902C97.5146 80.4902 97.5147 80.4902 97.5148 80.4902C97.5149 80.4902 97.515 80.4902 97.5151 80.4902C97.5152 80.4902 97.5154 80.4902 97.5155 80.4902C97.5156 80.4902 97.5157 80.4902 97.5158 80.4902C97.5159 80.4902 97.516 80.4902 97.5162 80.4902C97.5163 80.4902 97.5164 80.4902 97.5165 80.4902C97.5166 80.4902 97.5167 80.4902 97.5168 80.4902C97.5169 80.4902 97.5171 80.4902 97.5172 80.4902C97.5173 80.4902 97.5174 80.4902 97.5175 80.4902C97.5176 80.4902 97.5177 80.4902 97.5178 80.4902C97.5179 80.4902 97.5181 80.4902 97.5182 80.4902C97.5183 80.4902 97.5184 80.4902 97.5185 80.4902C97.5186 80.4902 97.5187 80.4902 97.5188 80.4902C97.5189 80.4902 97.519 80.4902 97.5192 80.4902C97.5193 80.4902 97.5194 80.4902 97.5195 80.4902C97.5196 80.4902 97.5197 80.4902 97.5198 80.4902C97.5199 80.4902 97.52 80.4902 97.5201 80.4902C97.5202 80.4902 97.5203 80.4902 97.5205 80.4902C97.5206 80.4902 97.5207 80.4902 97.5208 80.4902C97.5209 80.4902 97.521 80.4902 97.5211 80.4902C97.5212 80.4902 97.5213 80.4902 97.5214 80.4902C97.5215 80.4902 97.5216 80.4902 97.5217 80.4902C97.5218 80.4902 97.5219 80.4902 97.522 80.4902C97.5221 80.4902 97.5223 80.4902 97.5224 80.4902C97.5225 80.4902 97.5226 80.4902 97.5227 80.4902C97.5228 80.4902 97.5229 80.4902 97.523 80.4902C97.5231 80.4902 97.5232 80.4902 97.5233 80.4902C97.5234 80.4902 97.5235 80.4902 97.5236 80.4902C97.5237 80.4902 97.5238 80.4902 97.5239 80.4902C97.524 80.4902 97.5241 80.4902 97.5242 80.4902C97.5243 80.4902 97.5244 80.4902 97.5245 80.4902C97.5246 80.4902 97.5247 80.4902 97.5248 80.4902C97.5249 80.4902 97.525 80.4902 97.5251 80.4902C97.5252 80.4902 97.5253 80.4902 97.5254 80.4902C97.5255 80.4902 97.5256 80.4902 97.5257 80.4902C97.5258 80.4902 97.5259 80.4902 97.526 80.4902C97.5261 80.4902 97.5262 80.4902 97.5263 80.4902C97.5264 80.4902 97.5265 80.4902 97.5266 80.4902C97.5267 80.4902 97.5268 80.4902 97.5269 80.4902C97.527 80.4902 97.5271 80.4902 97.5272 80.4902C97.5273 80.4902 97.5274 80.4902 97.5275 80.4902C97.5276 80.4902 97.5277 80.4902 97.5278 80.4902C97.5279 80.4902 97.528 80.4902 97.5281 80.4902C97.5282 80.4902 97.5283 80.4902 97.5284 80.4902C97.5285 80.4902 97.5285 80.4902 97.5286 80.4902C97.5287 80.4902 97.5288 80.4902 97.5289 80.4902C97.529 80.4902 97.5291 80.4902 97.5292 80.4902C97.5293 80.4902 97.5294 80.4902 97.5295 80.4902C97.5296 80.4902 97.5297 80.4902 97.5298 80.4902C97.5299 80.4902 97.53 80.4902 97.53 80.4902C97.5301 80.4902 97.5302 80.4902 97.5303 80.4902C97.5304 80.4902 97.5305 80.4902 97.5306 80.4902C97.5307 80.4902 97.5308 80.4902 97.5309 80.4902C97.531 80.4902 97.5311 80.4902 97.5312 80.4902C97.5312 80.4902 97.5313 80.4902 97.5314 80.4902C97.5315 80.4902 97.5316 80.4902 97.5317 80.4902C97.5318 80.4902 97.5319 80.4902 97.532 80.4902C97.5321 80.4902 97.5321 80.4902 97.5322 80.4902C97.5323 80.4902 97.5324 80.4902 97.5325 80.4902C97.5326 80.4902 97.5327 80.4902 97.5328 80.4902C97.5328 80.4902 97.5329 80.4902 97.533 80.4902C97.5331 80.4902 97.5332 80.4902 97.5333 80.4902C97.5334 80.4902 97.5335 80.4902 97.5335 80.4902C97.5336 80.4902 97.5337 80.4902 97.5338 80.4902C97.5339 80.4902 97.534 80.4902 97.5341 80.4902C97.5342 80.4902 97.5342 80.4902 97.5343 80.4902C97.5344 80.4902 97.5345 80.4902 97.5346 80.4902C97.5347 80.4902 97.5347 80.4902 97.5348 80.4902C97.5349 80.4902 97.535 80.4902 97.5351 80.4902C97.5352 80.4902 97.5353 80.4902 97.5353 80.4902C97.5354 80.4902 97.5355 80.4902 97.5356 80.4902C97.5357 80.4902 97.5357 80.4902 97.5358 80.4902C97.5359 80.4902 97.536 80.4902 97.5361 80.4902C97.5362 80.4902 97.5362 80.4902 97.5363 80.4902C97.5364 80.4902 97.5365 80.4902 97.5366 80.4902C97.5367 80.4902 97.5367 80.4902 97.5368 80.4902C97.5369 80.4902 97.537 80.4902 97.5371 80.4902C97.5371 80.4902 97.5372 80.4902 97.5373 80.4902C97.5374 80.4902 97.5375 80.4902 97.5375 80.4902C97.5376 80.4902 97.5377 80.4902 97.5378 80.4902C97.5378 80.4902 97.5379 80.4902 97.538 80.4902C97.5381 80.4902 97.5382 80.4902 97.5382 80.4902C97.5383 80.4902 97.5384 80.4902 97.5385 80.4902C97.5386 80.4902 97.5386 80.4902 97.5387 80.4902C97.5388 80.4902 97.5389 80.4902 97.5389 80.4902C97.539 80.4902 97.5391 80.4902 97.5392 80.4902C97.5392 80.4902 97.5393 80.4902 97.5394 80.4902C97.5395 80.4902 97.5395 80.4902 97.5396 80.4902C97.5397 80.4902 97.5398 80.4902 97.5398 80.4902C97.5399 80.4902 97.54 80.4902 97.5401 80.4902C97.5401 80.4902 97.5402 80.4902 97.5403 80.4902C97.5404 80.4902 97.5404 80.4902 97.5405 80.4902C97.5406 80.4902 97.5407 80.4902 97.5407 80.4902C97.5408 80.4902 97.5409 80.4902 97.541 80.4902C97.541 80.4902 97.5411 80.4902 97.5412 80.4902C97.5412 80.4902 97.5413 80.4902 97.5414 80.4902C97.5415 80.4902 97.5415 80.4902 97.5416 80.4902C97.5417 80.4902 97.5417 80.4902 97.5418 80.4902C97.5419 80.4902 97.542 80.4902 97.542 80.4902C97.5421 80.4902 97.5422 80.4902 97.5422 80.4902C97.5423 80.4902 97.5424 80.4902 97.5424 80.4902C97.5425 80.4902 97.5426 80.4902 97.5426 80.4902C97.5427 80.4902 97.5428 80.4902 97.5429 80.4902C97.5429 80.4902 97.543 80.4902 97.5431 80.4902C97.5431 80.4902 97.5432 80.4902 97.5433 80.4902C97.5433 80.4902 97.5434 80.4902 97.5435 80.4902C97.5435 80.4902 97.5436 80.4902 97.5437 80.4902C97.5437 80.4902 97.5438 80.4902 97.5439 80.4902C97.5439 80.4902 97.544 80.4902 97.5441 80.4902C97.5441 80.4902 97.5442 80.4902 97.5443 80.4902C97.5443 80.4902 97.5444 80.4902 97.5445 80.4902C97.5445 80.4902 97.5446 80.4902 97.5446 80.4902C97.5447 80.4902 97.5448 80.4902 97.5448 80.4902C97.5449 80.4902 97.545 80.4902 97.545 80.4902C97.5451 80.4902 97.5452 80.4902 97.5452 80.4902C97.5453 80.4902 97.5453 80.4902 97.5454 80.4902C97.5455 80.4902 97.5455 80.4902 97.5456 80.4902C97.5457 80.4902 97.5457 80.4902 97.5458 80.4902C97.5458 80.4902 97.5459 80.4902 97.546 80.4902C97.546 80.4902 97.5461 80.4902 97.5461 80.4902C97.5462 80.4902 97.5463 80.4902 97.5463 80.4902C97.5464 80.4902 97.5464 80.4902 97.5465 80.4902C97.5466 80.4902 97.5466 80.4902 97.5467 80.4902C97.5467 80.4902 97.5468 80.4902 97.5469 80.4902C97.5469 80.4902 97.547 80.4902 97.547 80.4902C97.5471 80.4902 97.5472 80.4902 97.5472 80.4902C97.5473 80.4902 97.5473 80.4902 97.5474 80.4902C97.5474 80.4902 97.5475 80.4902 97.5476 80.4902C97.5476 80.4902 97.5477 80.4902 97.5477 80.4902C97.5478 80.4902 97.5478 80.4902 97.5479 80.4902C97.5479 80.4902 97.548 80.4902 97.5481 80.4902C97.5481 80.4902 97.5482 80.4902 97.5482 80.4902C97.5483 80.4902 97.5483 80.4902 97.5484 80.4902C97.5484 80.4902 97.5485 80.4902 97.5486 80.4902C97.5486 80.4902 97.5487 80.4902 97.5487 80.4902C97.5488 80.4902 97.5488 80.4902 97.5489 80.4902C97.5489 80.4902 97.549 80.4902 97.549 80.4902C97.5491 80.4902 97.5491 80.4902 97.5492 80.4902C97.5492 80.4902 97.5493 80.4902 97.5493 80.4902C97.5494 80.4902 97.5495 80.4902 97.5495 80.4902C97.5496 80.4902 97.5496 80.4902 97.5497 80.4902C97.5497 80.4902 97.5498 80.4902 97.5498 80.4902C97.5499 80.4902 97.5499 80.4902 97.55 80.4902C97.55 80.4902 97.5501 80.4902 97.5501 80.4902C97.5502 80.4902 97.5502 80.4902 97.5503 80.4902C97.5503 80.4902 97.5504 80.4902 97.5504 80.4902C97.5505 80.4902 97.5505 80.4902 97.5506 80.4902C97.5506 80.4902 97.5506 80.4902 97.5507 80.4902C97.5507 80.4902 97.5508 80.4902 97.5508 80.4902C97.5509 80.4902 97.5509 80.4902 97.551 80.4902V78.4902ZM97.299 78.4902C96.9811 78.4902 96.7201 78.6066 96.5415 78.7137C96.3575 78.8241 96.194 78.965 96.0519 79.1071L97.4661 80.5213C97.5009 80.4865 97.528 80.4623 97.5475 80.4464C97.5673 80.4303 97.5748 80.4261 97.5705 80.4287C97.5666 80.4311 97.5428 80.445 97.5005 80.4592C97.4574 80.4735 97.3883 80.4902 97.299 80.4902V78.4902ZM96.0989 79.0631C95.5496 79.5458 94.6903 79.8582 93.375 79.8582V81.8582C94.9876 81.8582 96.3844 81.4747 97.4191 80.5654L96.0989 79.0631ZM93.375 79.8582C93.2359 79.8582 93.135 79.8503 93.066 79.84C92.9939 79.8292 92.9799 79.8192 93.001 79.8287C93.0234 79.8387 93.1135 79.8838 93.1987 79.9983C93.2927 80.1247 93.331 80.2692 93.331 80.3902H91.331C91.331 80.6672 91.4128 80.9483 91.5938 81.1917C91.7659 81.4232 91.9866 81.5657 92.1829 81.6537C92.5518 81.8191 92.9834 81.8582 93.375 81.8582V79.8582ZM93.331 80.3902V80.2822H91.331V80.3902H93.331ZM93.331 80.2822C93.331 80.4368 93.2874 80.5273 93.313 80.4545C93.3252 80.42 93.3508 80.3558 93.3968 80.2546C93.4877 80.0543 93.6319 79.7663 93.8353 79.3831C94.2404 78.6198 94.854 77.5286 95.6801 76.1038L93.9499 75.1006C93.12 76.5319 92.4916 77.6487 92.0687 78.4454C91.8581 78.8422 91.6917 79.1722 91.5757 79.4279C91.5181 79.5546 91.4661 79.678 91.4265 79.7904C91.4004 79.8647 91.331 80.0616 91.331 80.2822H93.331ZM95.6788 76.1061C97.3595 73.2248 99.2202 70.0197 101.261 66.4908L99.5293 65.4897C97.4898 69.0168 95.6304 72.2197 93.9512 75.0984L95.6788 76.1061ZM101.261 66.4908C103.297 62.969 104.632 60.5124 105.233 59.1604L103.405 58.3481C102.854 59.588 101.573 61.9554 99.5293 65.4897L101.261 66.4908ZM105.236 59.1542C105.84 57.7691 106.183 56.4977 106.183 55.3702H104.183C104.183 56.1147 103.95 57.0994 103.402 58.3543L105.236 59.1542ZM106.183 55.3702V54.9742H104.183V55.3702H106.183ZM106.183 54.9742C106.183 55.2318 106.076 55.4266 105.98 55.5412C105.894 55.644 105.812 55.6919 105.791 55.7038C105.751 55.726 105.766 55.71 105.895 55.679C106.137 55.6211 106.553 55.562 107.18 55.5121C108.416 55.4133 110.301 55.3622 112.851 55.3622V53.3622C110.289 53.3622 108.34 53.4131 107.02 53.5184C106.369 53.5704 105.827 53.6389 105.429 53.734C105.239 53.7795 105.015 53.8464 104.815 53.9578C104.672 54.0376 104.183 54.3425 104.183 54.9742H106.183ZM112.851 55.3622C114.522 55.3622 115.973 55.3861 117.205 55.4335L117.281 53.435C116.017 53.3863 114.54 53.3622 112.851 53.3622V55.3622ZM117.993 55.0959C117.962 55.1305 118.03 55.0381 118.422 54.9517C118.785 54.8716 119.307 54.8222 120.015 54.8222V52.8222C119.235 52.8222 118.551 52.8749 117.99 52.9987C117.458 53.1164 116.884 53.3299 116.493 53.7726L117.993 55.0959ZM120.015 54.8222C120.132 54.8222 120.211 54.8297 120.26 54.8379C120.312 54.8465 120.306 54.852 120.27 54.8337C120.229 54.8133 120.139 54.7574 120.06 54.6402C119.978 54.5167 119.951 54.3872 119.951 54.2902H121.951C121.951 54.0372 121.885 53.7713 121.725 53.5308C121.568 53.2965 121.361 53.1431 121.164 53.0448C120.799 52.8623 120.378 52.8222 120.015 52.8222V54.8222ZM119.951 54.2902C119.951 54.2775 119.951 54.3361 119.898 54.4958C119.848 54.6461 119.766 54.8449 119.641 55.0979C119.39 55.6042 119.001 56.2651 118.459 57.0891L120.131 58.1874C120.693 57.3313 121.132 56.5942 121.433 55.9846C121.713 55.4202 121.951 54.8193 121.951 54.2902H119.951ZM118.457 57.092C117.393 58.7245 116.524 59.727 115.859 60.2166L117.043 61.8279C118.009 61.1175 119.037 59.864 120.133 58.1845L118.457 57.092ZM115.818 60.2483C115.766 60.2908 115.667 60.3462 115.443 60.3462V62.3462C116.035 62.3462 116.608 62.1857 117.084 61.7962L115.818 60.2483ZM115.443 60.3462C115.278 60.3462 115.283 60.3249 115.365 60.3586C115.415 60.3793 115.535 60.4381 115.646 60.5753C115.771 60.7287 115.831 60.9162 115.831 61.0942H113.831C113.831 61.3563 113.917 61.6173 114.092 61.8337C114.254 62.0338 114.451 62.1451 114.603 62.2079C114.889 62.3256 115.2 62.3462 115.443 62.3462V60.3462ZM115.831 61.0942C115.831 61.2173 115.802 61.2988 115.794 61.3193C115.785 61.3443 115.781 61.3461 115.796 61.3207L114.081 60.2917C113.989 60.4454 113.831 60.7382 113.831 61.0942H115.831ZM115.828 61.2649C116.293 60.363 116.515 59.3627 116.515 58.2862H114.515C114.515 59.0817 114.353 59.7614 114.05 60.3476L115.828 61.2649ZM116.515 58.2862C116.515 57.3685 116.18 56.5433 115.417 55.9911C114.714 55.4823 113.782 55.3062 112.779 55.3062V57.3062C113.6 57.3062 114.036 57.4602 114.245 57.6113C114.394 57.7191 114.515 57.8839 114.515 58.2862H116.515ZM112.779 55.3062C111.499 55.3062 110.363 55.6434 109.487 56.4228L110.815 57.9176C111.235 57.545 111.851 57.3062 112.779 57.3062V55.3062ZM109.473 56.4354C108.757 57.0957 108.077 57.9832 107.423 59.0648L109.135 60.0996C109.729 59.1173 110.297 58.3968 110.829 57.905L109.473 56.4354ZM107.423 59.0648C106.785 60.1204 106.291 61.0542 105.953 61.8595L107.797 62.633C108.083 61.9503 108.525 61.1081 109.135 60.0996L107.423 59.0648ZM105.942 61.8852C105.794 62.2674 105.677 62.5951 105.595 62.8611C105.526 63.0876 105.443 63.3855 105.443 63.6502H107.443C107.443 63.7082 107.435 63.7243 107.447 63.6676C107.457 63.6215 107.476 63.5504 107.507 63.4493C107.569 63.2474 107.667 62.969 107.808 62.6072L105.942 61.8852ZM105.443 63.6502C105.443 64.0981 105.552 64.5637 105.856 64.9607C106.161 65.3586 106.584 65.5844 107.019 65.6978L107.523 63.7626C107.463 63.747 107.436 63.7319 107.429 63.7275C107.424 63.7244 107.432 63.7291 107.444 63.7438C107.455 63.7584 107.456 63.7671 107.454 63.7589C107.451 63.7485 107.443 63.7152 107.443 63.6502H105.443ZM107.067 65.7092C107.759 65.8535 108.989 65.9102 110.655 65.9102V63.9102C108.961 63.9102 107.934 63.847 107.475 63.7512L107.067 65.7092ZM110.695 65.9094L113.359 65.8014L113.278 63.8031L110.614 63.9111L110.695 65.9094ZM113.319 65.8022C113.316 65.8022 113.278 65.8022 113.219 65.7865C113.158 65.7702 113.063 65.734 112.964 65.6551C112.729 65.4669 112.679 65.2149 112.679 65.0902H114.679C114.679 64.7735 114.569 64.3776 114.214 64.0934C113.901 63.8432 113.546 63.8022 113.319 63.8022V65.8022ZM112.679 65.0902C112.679 65.047 112.683 65.015 112.686 64.9974C112.689 64.9794 112.692 64.9696 112.692 64.9695C112.692 64.9691 112.69 64.9748 112.686 64.9873C112.681 64.9995 112.674 65.0165 112.665 65.0385C112.624 65.1319 112.549 65.2728 112.43 65.4688L114.136 66.5117C114.28 66.2757 114.404 66.0506 114.495 65.844C114.574 65.6649 114.679 65.3902 114.679 65.0902H112.679ZM112.421 65.4832C112.224 65.8188 112.07 65.9599 111.99 66.0106L113.064 67.6979C113.512 67.4125 113.862 66.9777 114.145 66.4973L112.421 65.4832ZM111.964 66.028C111.684 66.2189 111.112 66.3942 110.079 66.3942V68.3942C111.254 68.3942 112.314 68.2096 113.09 67.6805L111.964 66.028ZM114.2 76.1782L115.13 76.5439L115.132 76.5401L114.2 76.1782ZM116.864 70.2382L115.974 69.7821L115.974 69.7821L116.864 70.2382ZM120.86 63.1462L120.003 62.631L120.001 62.6328L120.86 63.1462ZM128.564 50.7982L129.403 51.3415L129.41 51.331L128.564 50.7982ZM130.472 49.2142L130.899 50.1185L130.899 50.1185L130.472 49.2142ZM133.892 49.1782H134.892V49.147L134.89 49.1159L133.892 49.1782ZM133.676 49.5742L134.349 50.3132L134.366 50.2976L134.383 50.2813L133.676 49.5742ZM129.572 54.7582L130.385 55.3395L130.388 55.336L129.572 54.7582ZM123.452 64.0102L122.602 63.4829L122.599 63.4871L123.452 64.0102ZM117.8 75.0262L116.878 74.6371L116.876 74.642L117.8 75.0262ZM114.02 84.5662L114.754 83.888L114.741 83.8733L114.727 83.8591L114.02 84.5662ZM113.408 83.4502L114.375 83.1957L114.372 83.1839L114.368 83.1722L113.408 83.4502ZM114.012 80.6422C114.012 79.8872 114.341 78.5532 115.13 76.5439L113.269 75.8126C112.474 77.8353 112.012 79.4773 112.012 80.6422H114.012ZM115.132 76.5401C115.911 74.5318 116.785 72.5832 117.754 70.6943L115.974 69.7821C114.974 71.7332 114.072 73.7447 113.267 75.8163L115.132 76.5401ZM117.754 70.6943C118.724 68.8009 120.044 66.4574 121.718 63.6596L120.001 62.6328C118.315 65.4511 116.971 67.8355 115.974 69.7821L117.754 70.6943ZM121.717 63.6615C124.207 59.5189 126.769 55.4123 129.403 51.3415L127.724 50.255C125.078 54.3442 122.504 58.4695 120.003 62.631L121.717 63.6615ZM129.41 51.331C129.694 50.88 130.164 50.4652 130.899 50.1185L130.045 48.31C129.051 48.7792 128.249 49.4205 127.717 50.2654L129.41 51.331ZM130.899 50.1185C131.676 49.7514 132.308 49.6022 132.812 49.6022V47.6022C131.924 47.6022 130.995 47.8611 130.045 48.31L130.899 50.1185ZM132.812 49.6022C132.942 49.6022 133.033 49.6114 133.092 49.6221C133.152 49.6331 133.158 49.6419 133.133 49.6286C133.103 49.6128 133.037 49.5689 132.979 49.4809C132.918 49.3904 132.897 49.3004 132.894 49.2406L134.89 49.1159C134.854 48.5529 134.538 48.1112 134.074 47.8639C133.681 47.654 133.223 47.6022 132.812 47.6022V49.6022ZM132.892 49.1782C132.892 49.0337 132.935 48.9328 132.96 48.8884C132.982 48.8468 132.995 48.8405 132.968 48.8671L134.383 50.2813C134.592 50.0724 134.892 49.6973 134.892 49.1782H132.892ZM133.002 48.8353C132.092 49.6644 130.665 51.4838 128.755 54.1804L130.388 55.336C132.319 52.6087 133.627 50.9721 134.349 50.3132L133.002 48.8353ZM128.758 54.177C126.823 56.8861 124.771 59.9887 122.602 63.4829L124.301 64.5376C126.452 61.0718 128.48 58.0063 130.385 55.3395L128.758 54.177ZM122.599 63.4871C120.436 67.0111 118.529 70.7281 116.878 74.6372L118.721 75.4153C120.334 71.5964 122.195 67.9693 124.304 64.5333L122.599 63.4871ZM116.876 74.642C115.249 78.5536 114.388 81.8526 114.388 84.4942H116.388C116.388 82.2399 117.135 79.2269 118.723 75.4104L116.876 74.642ZM114.388 84.4942C114.388 84.6069 114.365 84.5251 114.449 84.3847C114.5 84.2996 114.587 84.1998 114.72 84.1263C114.851 84.0536 114.976 84.0342 115.064 84.0342V86.0342C115.51 86.0342 115.923 85.8155 116.164 85.4137C116.356 85.0934 116.388 84.7416 116.388 84.4942H114.388ZM115.064 84.0342C114.947 84.0342 114.862 84.0043 114.754 83.888L113.285 85.2445C113.753 85.7522 114.364 86.0342 115.064 86.0342V84.0342ZM114.727 83.8591C114.582 83.7149 114.457 83.5079 114.375 83.1957L112.44 83.7047C112.598 84.3046 112.881 84.8416 113.312 85.2733L114.727 83.8591ZM114.368 83.1722C114.131 82.3516 114.012 81.5092 114.012 80.6422H112.012C112.012 81.6953 112.157 82.7249 112.447 83.7283L114.368 83.1722ZM119.775 80.4622L120.502 79.7756L120.492 79.7652L120.482 79.7551L119.775 80.4622ZM121.503 73.8742L120.614 73.4159L120.613 73.4186L121.503 73.8742ZM123.951 67.6462L124.95 67.6906L124.951 67.6684V67.6462H123.951ZM124.599 66.7102L124.089 65.8504L124.066 65.8637L124.044 65.8782L124.599 66.7102ZM128.919 66.2062L128.56 67.1396L128.602 67.1555L128.644 67.1678L128.919 66.2062ZM129.315 66.8902L128.608 66.1831L128.567 66.2241L128.531 66.2695L129.315 66.8902ZM125.319 73.1182L124.456 72.6139L125.319 73.1182ZM121.359 80.4262L120.456 79.9976L120.416 80.0817L120.392 80.1717L121.359 80.4262ZM127.119 62.7502H126.119V62.7788L126.121 62.8073L127.119 62.7502ZM128.163 60.9502L127.628 60.1054L127.622 60.1095L127.615 60.1138L128.163 60.9502ZM131.943 61.5262H132.943V61.4977L132.941 61.4692L131.943 61.5262ZM130.899 63.3262L131.447 64.1627L131.457 64.1562L131.467 64.1494L130.899 63.3262ZM120.891 80.1102C120.942 80.1102 120.938 80.1272 120.862 80.0834C120.784 80.0382 120.663 79.9463 120.502 79.7756L119.048 81.1489C119.51 81.6381 120.131 82.1102 120.891 82.1102V80.1102ZM120.482 79.7551C120.27 79.5428 120.163 79.2968 120.163 78.9502H118.163C118.163 79.8037 118.464 80.5656 119.068 81.1693L120.482 79.7551ZM120.163 78.9502C120.163 79.0575 120.14 79.1083 120.16 79.0382C120.174 78.9919 120.199 78.9157 120.243 78.803C120.329 78.5788 120.465 78.263 120.656 77.8479C121.038 77.0206 121.615 75.8499 122.393 74.3298L120.613 73.4186C119.831 74.9466 119.239 76.1459 118.84 77.0106C118.641 77.4415 118.485 77.8021 118.376 78.085C118.322 78.2258 118.274 78.3607 118.239 78.4831C118.21 78.5818 118.163 78.759 118.163 78.9502H120.163ZM122.392 74.3325C123.192 72.7808 123.809 71.4607 124.234 70.379C124.649 69.3236 124.918 68.4052 124.95 67.6906L122.952 67.6018C122.936 67.9672 122.774 68.6268 122.372 69.6474C121.982 70.6418 121.398 71.8956 120.614 73.4159L122.392 74.3325ZM124.951 67.6462C124.951 67.6715 124.947 67.6957 124.94 67.715C124.934 67.7332 124.929 67.7381 124.935 67.7294C124.95 67.7077 125.007 67.6404 125.154 67.5423L124.044 65.8782C123.493 66.2459 122.951 66.822 122.951 67.6462H124.951ZM125.11 67.5701C125.65 67.2492 126.577 67.0262 128.019 67.0262V65.0262C126.437 65.0262 125.084 65.2593 124.089 65.8504L125.11 67.5701ZM128.019 67.0262C128.166 67.0262 128.345 67.0567 128.56 67.1396L129.278 65.2729C128.87 65.1158 128.448 65.0262 128.019 65.0262V67.0262ZM128.644 67.1678C128.745 67.1966 128.717 67.2059 128.646 67.1455C128.605 67.11 128.545 67.0469 128.497 66.9504C128.447 66.8504 128.423 66.7419 128.423 66.6382H130.423C130.423 66.2042 130.216 65.8568 129.948 65.627C129.709 65.4226 129.429 65.3118 129.194 65.2447L128.644 67.1678ZM128.423 66.6382C128.423 66.5578 128.439 66.468 128.477 66.3793C128.514 66.2918 128.564 66.2268 128.608 66.1831L130.022 67.5973C130.269 67.3504 130.423 67.0168 130.423 66.6382H128.423ZM128.531 66.2695C127.571 67.4823 126.208 69.6131 124.456 72.6139L126.183 73.6225C127.934 70.6234 129.235 68.6021 130.099 67.5109L128.531 66.2695ZM124.456 72.6139C122.697 75.6245 121.361 78.0884 120.456 79.9976L122.263 80.8548C123.133 79.02 124.437 76.6119 126.183 73.6225L124.456 72.6139ZM120.392 80.1717C120.37 80.2556 120.35 80.3138 120.335 80.3513C120.319 80.3906 120.314 80.3932 120.327 80.3745C120.339 80.3572 120.385 80.2934 120.48 80.231C120.585 80.1621 120.728 80.1102 120.891 80.1102V82.1102C121.447 82.1102 121.801 81.7622 121.977 81.5039C122.15 81.2516 122.255 80.9527 122.326 80.6807L120.392 80.1717ZM128.775 63.0102C128.358 63.0102 128.207 62.9237 128.175 62.8994C128.164 62.8915 128.159 62.886 128.152 62.8715C128.143 62.8524 128.124 62.7998 128.117 62.6932L126.121 62.8073C126.157 63.4511 126.406 64.0666 126.964 64.4911C127.484 64.8867 128.137 65.0102 128.775 65.0102V63.0102ZM128.119 62.7502V62.7142H126.119V62.7502H128.119ZM128.119 62.7142C128.119 62.3884 128.246 62.0915 128.711 61.7867L127.615 60.1138C126.688 60.721 126.119 61.6001 126.119 62.7142H128.119ZM128.698 61.7951C129.294 61.4176 129.819 61.2662 130.287 61.2662V59.2662C129.363 59.2662 128.472 59.5709 127.628 60.1054L128.698 61.7951ZM130.287 61.2662C130.705 61.2662 130.856 61.3527 130.888 61.3771C130.898 61.3849 130.903 61.3904 130.91 61.4049C130.919 61.4241 130.939 61.4766 130.945 61.5833L132.941 61.4692C132.905 60.8254 132.656 60.2099 132.099 59.7854C131.579 59.3897 130.926 59.2662 130.287 59.2662V61.2662ZM130.943 61.5262C130.943 61.8567 130.811 62.1723 130.331 62.503L131.467 64.1494C132.379 63.5202 132.943 62.6358 132.943 61.5262H130.943ZM130.351 62.4898C129.792 62.8561 129.271 63.0102 128.775 63.0102V65.0102C129.719 65.0102 130.614 64.7084 131.447 64.1627L130.351 62.4898ZM134.26 78.0142L133.265 77.9194L133.26 77.9667V78.0142H134.26ZM134.332 77.2582L135.328 77.353L135.332 77.3057V77.2582H134.332ZM132.784 77.9062L132.104 77.1734L132.097 77.1796L132.09 77.1859L132.784 77.9062ZM130.3 79.7782L129.774 78.928L129.762 78.9353L129.75 78.9431L130.3 79.7782ZM128.212 72.2542L127.385 71.6919L127.38 71.6995L128.212 72.2542ZM131.02 68.9422L131.71 69.6656L131.711 69.6652L131.02 68.9422ZM134.944 66.4222L135.333 67.3437L135.345 67.3384L134.944 66.4222ZM142.036 66.1342L141.426 66.9269L141.436 66.9344L141.446 66.9416L142.036 66.1342ZM141.496 68.4742L142.087 67.6678L142.073 67.657L142.058 67.6468L141.496 68.4742ZM132.928 70.3822L132.216 69.6801L132.216 69.6802L132.928 70.3822ZM130.588 76.0702L129.74 76.6002L129.763 76.6362L129.788 76.6702L130.588 76.0702ZM133.936 74.8822L134.593 75.6359L134.602 75.6279L133.936 74.8822ZM137.248 70.5622L138.114 71.062L138.165 70.9744L138.197 70.8785L137.248 70.5622ZM138.04 69.9502L138.428 70.8719L138.428 70.8719L138.04 69.9502ZM139.66 69.6622L139.741 68.6655L139.7 68.6622H139.66V69.6622ZM140.704 70.7062L139.872 70.1515L139.866 70.1604L139.86 70.1694L140.704 70.7062ZM139.768 72.1822L140.613 72.7173L140.613 72.7173L139.768 72.1822ZM137.824 75.7462L136.932 75.2938L136.93 75.299L137.824 75.7462ZM136.384 79.6342L135.395 79.4859L135.39 79.5184L135.387 79.5512L136.384 79.6342ZM135.256 78.109L135.328 77.353L133.337 77.1634L133.265 77.9194L135.256 78.109ZM135.332 77.2582C135.332 77.0661 135.301 76.7396 135.078 76.4422C134.814 76.0907 134.432 75.9702 134.116 75.9702V77.9702C134.042 77.9702 133.93 77.9579 133.804 77.902C133.673 77.8436 133.561 77.7525 133.478 77.6422C133.327 77.4408 133.332 77.2584 133.332 77.2582H135.332ZM134.116 75.9702C133.846 75.9702 133.62 76.0604 133.484 76.1247C133.332 76.1967 133.184 76.2894 133.046 76.386C132.77 76.5798 132.453 76.8485 132.104 77.1734L133.464 78.639C133.787 78.34 134.028 78.1407 134.196 78.0224C134.28 77.963 134.326 77.9388 134.339 77.9328C134.368 77.9191 134.278 77.9702 134.116 77.9702V75.9702ZM132.09 77.1859C131.507 77.7481 130.739 78.3302 129.774 78.928L130.826 80.6285C131.877 79.9782 132.766 79.3123 133.478 78.6266L132.09 77.1859ZM129.75 78.9431C128.901 79.5021 128.093 79.7502 127.312 79.7502V81.7502C128.547 81.7502 129.731 81.3504 130.85 80.6134L129.75 78.9431ZM127.312 79.7502C127.19 79.7502 127.133 79.728 127.111 79.7171C127.093 79.7083 127.068 79.6926 127.035 79.6434C126.951 79.5188 126.836 79.2057 126.836 78.5542H124.836C124.836 79.3668 124.967 80.1517 125.375 80.7591C125.831 81.437 126.532 81.7502 127.312 81.7502V79.7502ZM126.836 78.5542C126.836 77.0102 127.512 75.1064 129.044 72.8089L127.38 71.6995C125.744 74.1541 124.836 76.4502 124.836 78.5542H126.836ZM129.039 72.8165C129.815 71.6752 130.705 70.6252 131.71 69.6656L130.33 68.2189C129.223 69.2753 128.241 70.4332 127.385 71.6919L129.039 72.8165ZM131.711 69.6652C132.693 68.7263 133.896 67.9498 135.333 67.3436L134.555 65.5009C132.92 66.1906 131.507 67.0941 130.329 68.2192L131.711 69.6652ZM135.345 67.3384C136.754 66.7218 138.226 66.4142 139.768 66.4142V64.4142C137.95 64.4142 136.206 64.7787 134.543 65.5061L135.345 67.3384ZM139.768 66.4142C140.465 66.4142 140.999 66.5984 141.426 66.9269L142.646 65.3416C141.825 64.7101 140.847 64.4142 139.768 64.4142V66.4142ZM141.446 66.9416C141.845 67.2334 141.972 67.524 141.972 67.8622H143.972C143.972 66.8084 143.475 65.9471 142.626 65.3268L141.446 66.9416ZM141.972 67.8622C141.972 67.9827 141.963 68.0605 141.954 68.1049C141.944 68.1506 141.94 68.1393 141.964 68.0993C141.993 68.0526 142.051 67.9833 142.147 67.9307C142.241 67.879 142.322 67.8702 142.36 67.8702V69.8702C142.897 69.8702 143.382 69.6174 143.674 69.1372C143.916 68.7376 143.972 68.2668 143.972 67.8622H141.972ZM142.36 67.8702C142.447 67.8702 142.468 67.8939 142.399 67.8622C142.336 67.8332 142.233 67.7746 142.087 67.6678L140.905 69.2806C141.286 69.5603 141.8 69.8702 142.36 69.8702V67.8702ZM142.058 67.6468C141.135 67.0208 139.833 66.7902 138.328 66.7902V68.7902C139.703 68.7902 140.513 69.0157 140.935 69.3017L142.058 67.6468ZM138.328 66.7902C136.095 66.7902 134.053 67.8176 132.216 69.6801L133.64 71.0844C135.211 69.4909 136.769 68.7902 138.328 68.7902V66.7902ZM132.216 69.6802C130.43 71.4914 129.408 73.4213 129.408 75.4582H131.408C131.408 74.1351 132.066 72.6811 133.64 71.0843L132.216 69.6802ZM129.408 75.4582C129.408 75.8709 129.526 76.2573 129.74 76.6002L131.436 75.5402C131.41 75.4991 131.408 75.4776 131.408 75.4582H129.408ZM129.788 76.6702C130.121 77.114 130.609 77.3582 131.164 77.3582V75.3582C131.181 75.3582 131.229 75.3625 131.287 75.3918C131.346 75.4211 131.378 75.4569 131.388 75.4702L129.788 76.6702ZM131.164 77.3582C132.279 77.3582 133.447 76.6355 134.593 75.6358L133.279 74.1287C132.169 75.097 131.489 75.3582 131.164 75.3582V77.3582ZM134.602 75.6279C135.836 74.5258 137.002 72.99 138.114 71.062L136.382 70.0625C135.334 71.8785 134.292 73.2226 133.27 74.1366L134.602 75.6279ZM138.197 70.8785C138.171 70.9546 138.138 71.0039 138.119 71.0272C138.101 71.0495 138.094 71.052 138.111 71.0385C138.151 71.0083 138.245 70.9488 138.428 70.8719L137.652 69.0286C137.379 69.1437 137.113 69.2822 136.889 69.4559C136.669 69.6258 136.421 69.881 136.299 70.246L138.197 70.8785ZM138.428 70.8719C138.734 70.7432 139.136 70.6622 139.66 70.6622V68.6622C138.936 68.6622 138.258 68.7733 137.652 69.0286L138.428 70.8719ZM139.579 70.659C139.774 70.6748 139.929 70.696 140.048 70.7196C140.171 70.7439 140.236 70.767 140.262 70.7781C140.293 70.7914 140.234 70.773 140.158 70.6878C140.118 70.6416 140.074 70.5769 140.041 70.4931C140.007 70.4083 139.992 70.3208 139.992 70.2382H141.992C141.992 69.4834 141.416 69.0982 141.056 68.9424C140.682 68.7807 140.218 68.7042 139.741 68.6655L139.579 70.659ZM139.992 70.2382C139.992 70.16 140.001 70.097 140.009 70.058C140.016 70.0168 140.025 69.9833 140.032 69.9602C140.045 69.9153 140.059 69.8817 140.066 69.8654C140.08 69.8323 140.091 69.8112 140.092 69.8104C140.094 69.8059 140.089 69.8163 140.068 69.8491C140.03 69.9114 139.966 70.0104 139.872 70.1515L141.536 71.2609C141.634 71.114 141.714 70.991 141.772 70.8973C141.799 70.8522 141.83 70.8011 141.856 70.7516C141.869 70.7282 141.889 70.6888 141.909 70.6415C141.919 70.618 141.935 70.5783 141.95 70.5284C141.96 70.4923 141.992 70.3823 141.992 70.2382H139.992ZM139.86 70.1694C139.692 70.4344 139.379 70.9273 138.923 71.6472L140.613 72.7173C141.069 71.9972 141.38 71.5061 141.548 71.2431L139.86 70.1694ZM138.923 71.6472C138.44 72.4102 137.774 73.6345 136.932 75.2939L138.716 76.1986C139.554 74.546 140.184 73.3943 140.613 72.7173L138.923 71.6472ZM136.93 75.299C136.1 76.9577 135.563 78.3671 135.395 79.4859L137.373 79.7826C137.493 78.9813 137.916 77.7988 138.718 76.1934L136.93 75.299ZM135.387 79.5512C135.384 79.5939 135.383 79.4683 135.508 79.318C135.576 79.236 135.667 79.1659 135.774 79.1201C135.877 79.076 135.967 79.0662 136.024 79.0662V81.0662C136.378 81.0662 136.764 80.9346 137.044 80.5984C137.289 80.3041 137.36 79.9625 137.381 79.7173L135.387 79.5512ZM136.024 79.0662C135.633 79.0662 135.509 78.9596 135.459 78.9013C135.384 78.8142 135.26 78.578 135.26 78.0142H133.26C133.26 78.8185 133.43 79.6083 133.943 80.2051C134.481 80.8309 135.239 81.0662 136.024 81.0662V79.0662ZM137.874 80.9662H136.874V81.0548L136.89 81.142L137.874 80.9662ZM138.27 80.6062V79.6062H138.18L138.091 79.6224L138.27 80.6062ZM143.634 78.9862L143.144 78.1146L143.139 78.1173L143.634 78.9862ZM144.786 73.1182L144.208 73.9343L144.22 73.9423L144.786 73.1182ZM145.578 67.1422L146.074 68.0105L146.083 68.0051L145.578 67.1422ZM152.058 65.7022L151.862 66.6828L151.959 66.7022H152.058V65.7022ZM152.382 65.4862L151.568 64.905L151.559 64.9181L151.55 64.9315L152.382 65.4862ZM152.778 64.9462L153.578 65.5462L153.578 65.5462L152.778 64.9462ZM153.57 64.4422L153.921 65.3786L153.946 65.3691L153.971 65.3584L153.57 64.4422ZM156.738 64.9102L157.397 65.6628L157.545 65.5333L157.633 65.3574L156.738 64.9102ZM152.526 71.1022L153.44 71.5084L153.448 71.4895L153.456 71.4703L152.526 71.1022ZM150.942 70.8862L150.166 71.5168L150.176 71.5292L150.186 71.5412L150.942 70.8862ZM150.654 68.6902L151.609 68.9885L151.611 68.9805L151.613 68.9724L150.654 68.6902ZM147.918 68.1862L148.397 69.0642L148.406 69.0592L147.918 68.1862ZM148.53 72.5782L149.123 71.7732L149.113 71.766L149.104 71.759L148.53 72.5782ZM149.754 73.8742L148.928 74.4376L148.936 74.4501L148.945 74.4624L149.754 73.8742ZM147.126 79.9582L146.6 79.1075L146.594 79.1118L147.126 79.9582ZM138.874 80.9662C138.874 81.0343 138.862 81.1257 138.82 81.2254C138.777 81.3268 138.714 81.4101 138.646 81.4722C138.52 81.5864 138.415 81.5963 138.449 81.5901L138.091 79.6224C137.861 79.6641 137.558 79.7581 137.3 79.9923C137.009 80.2575 136.874 80.6126 136.874 80.9662H138.874ZM138.27 81.6062C140.168 81.6062 142.126 80.996 144.129 79.8552L143.139 78.1173C141.35 79.1364 139.732 79.6062 138.27 79.6062V81.6062ZM144.124 79.8578C146.088 78.7532 147.514 77.3691 147.514 75.6022H145.514C145.514 76.1874 145.02 77.0593 143.144 78.1147L144.124 79.8578ZM147.514 75.6022C147.514 74.2451 146.605 73.1552 145.353 72.2942L144.22 73.9423C145.271 74.6653 145.514 75.2314 145.514 75.6022H147.514ZM145.364 72.3022C144.317 71.5607 144.058 70.9702 144.058 70.5622H142.058C142.058 71.9302 142.951 73.0438 144.208 73.9343L145.364 72.3022ZM144.058 70.5622C144.058 69.7533 144.546 68.8836 146.074 68.0105L145.082 66.274C143.25 67.3208 142.058 68.7312 142.058 70.5622H144.058ZM146.083 68.0051C147.596 67.1195 149.326 66.6662 151.302 66.6662V64.6662C149.006 64.6662 146.921 65.197 145.073 66.2793L146.083 68.0051ZM151.302 66.6662C151.485 66.6662 151.627 66.6691 151.732 66.6741C151.848 66.6797 151.879 66.6862 151.862 66.6828L152.254 64.7217C152.02 64.6748 151.666 64.6662 151.302 64.6662V66.6662ZM152.058 66.7022C152.645 66.7022 153.021 66.3308 153.214 66.0409L151.55 64.9315C151.552 64.9283 151.589 64.8734 151.674 64.8162C151.771 64.752 151.904 64.7022 152.058 64.7022V66.7022ZM153.196 66.0675C153.311 65.9067 153.438 65.733 153.578 65.5462L151.978 64.3462C151.83 64.5435 151.693 64.7298 151.568 64.905L153.196 66.0675ZM153.578 65.5462C153.56 65.571 153.561 65.5578 153.621 65.5199C153.68 65.4826 153.775 65.4332 153.921 65.3786L153.219 63.5059C152.768 63.6749 152.292 63.928 151.978 64.3462L153.578 65.5462ZM153.971 65.3584C154.2 65.2581 154.513 65.1902 154.938 65.1902V63.1902C154.307 63.1902 153.708 63.2904 153.169 63.5261L153.971 65.3584ZM154.938 65.1902C155.525 65.1902 155.868 65.2361 156.033 65.2846C156.116 65.3092 156.075 65.3123 155.998 65.2438C155.891 65.1497 155.774 64.9672 155.774 64.7302H157.774C157.774 64.3133 157.581 63.9733 157.321 63.7441C157.09 63.5407 156.82 63.4313 156.597 63.3659C156.15 63.2344 155.575 63.1902 154.938 63.1902V65.1902ZM155.774 64.7302C155.774 64.6976 155.779 64.593 155.844 64.463L157.633 65.3574C157.745 65.1315 157.774 64.9069 157.774 64.7302H155.774ZM156.08 64.1577C155.601 64.5764 154.854 65.4958 153.884 66.7966L155.488 67.9919C156.486 66.6527 157.107 65.9161 157.397 65.6628L156.08 64.1577ZM153.884 66.7966C152.864 68.1655 152.093 69.4786 151.596 70.7342L153.456 71.4703C153.871 70.4219 154.54 69.2629 155.488 67.9919L153.884 66.7966ZM151.612 70.6961C151.633 70.6492 151.665 70.5979 151.711 70.5503C151.757 70.503 151.805 70.4709 151.845 70.4508C151.919 70.4137 151.948 70.4262 151.878 70.4262V72.4262C152.415 72.4262 153.117 72.2347 153.44 71.5084L151.612 70.6961ZM151.878 70.4262C151.923 70.4262 151.938 70.4411 151.91 70.425C151.876 70.4054 151.803 70.3526 151.698 70.2313L150.186 71.5412C150.588 72.0044 151.152 72.4262 151.878 72.4262V70.4262ZM151.718 70.2556C151.485 69.9685 151.474 69.8259 151.474 69.8062H149.474C149.474 70.4585 149.775 71.036 150.166 71.5168L151.718 70.2556ZM151.474 69.8062C151.474 69.5585 151.515 69.2872 151.609 68.9885L149.7 68.392C149.553 68.8613 149.474 69.334 149.474 69.8062H151.474ZM151.613 68.9724C151.675 68.7631 151.724 68.5861 151.759 68.4468C151.777 68.3776 151.793 68.3086 151.805 68.2446C151.814 68.1993 151.834 68.0906 151.834 67.9702H149.834C149.834 67.9178 149.839 67.8814 149.84 67.8747C149.841 67.8636 149.842 67.86 149.841 67.8669C149.838 67.8809 149.832 67.9109 149.819 67.9617C149.794 68.0623 149.753 68.2093 149.695 68.4081L151.613 68.9724ZM151.834 67.9702C151.834 67.5988 151.71 67.1592 151.321 66.8431C150.971 66.5593 150.56 66.5022 150.258 66.5022V68.5022C150.34 68.5022 150.217 68.5231 150.059 68.3953C149.975 68.3264 149.911 68.2377 149.873 68.145C149.837 68.0585 149.834 67.9929 149.834 67.9702H151.834ZM150.258 66.5022C149.305 66.5022 148.358 66.795 147.43 67.3133L148.406 69.0592C149.11 68.6655 149.723 68.5022 150.258 68.5022V66.5022ZM147.439 67.3083C146.923 67.5901 146.484 67.9671 146.178 68.4587C145.87 68.954 145.73 69.5107 145.73 70.0942H147.73C147.73 69.8378 147.788 69.6565 147.876 69.5158C147.966 69.3714 148.121 69.2144 148.397 69.0641L147.439 67.3083ZM145.73 70.0942C145.73 71.4256 146.695 72.5145 147.957 73.3975L149.104 71.759C147.965 70.962 147.73 70.3948 147.73 70.0942H145.73ZM147.937 73.3833C148.291 73.6444 148.623 73.9909 148.928 74.4376L150.58 73.3109C150.165 72.7016 149.681 72.184 149.123 71.7732L147.937 73.3833ZM148.945 74.4624C149.222 74.8433 149.33 75.1932 149.33 75.5302H151.33C151.33 74.7153 151.054 73.9612 150.563 73.2861L148.945 74.4624ZM149.33 75.5302C149.33 76.6553 148.61 77.8655 146.6 79.1076L147.652 80.8089C149.914 79.4109 151.33 77.6692 151.33 75.5302H149.33ZM146.594 79.1118C144.615 80.3567 142.483 80.9742 140.178 80.9742V82.9742C142.865 82.9742 145.365 82.2478 147.659 80.8046L146.594 79.1118ZM140.178 80.9742C139.526 80.9742 139.14 80.8933 138.941 80.8061C138.85 80.7665 138.83 80.739 138.836 80.7462C138.839 80.75 138.845 80.7583 138.851 80.77C138.854 80.7755 138.856 80.7804 138.857 80.7843C138.858 80.7883 138.859 80.7905 138.858 80.7904L136.89 81.142C137.022 81.8839 137.529 82.3713 138.139 82.6384C138.708 82.8872 139.414 82.9742 140.178 82.9742V80.9742Z" fill="black" mask="url(#path-2-outside-1_40_18)"/>
</g>
<g filter="url(#filter1_d_40_18)">
<path d="M93.9498 88.41H174.158" stroke="#8A0D0D" stroke-width="4" stroke-linecap="round"/>
</g>
<ellipse cx="130.173" cy="95.5402" rx="58.8628" ry="2.19391" fill="#310808"/>
<defs>
<filter id="filter0_d_40_18" x="88.331" y="48.6022" width="72.4431" height="44.432" filterUnits="userSpaceOnUse" color-interpolation-filters="sRGB">
<feFlood flood-opacity="0" result="BackgroundImageFix"/>
<feColorMatrix in="SourceAlpha" type="matrix" values="0 0 0 0 0 0 0 0 0 0 0 0 0 0 0 0 0 0 127 0" result="hardAlpha"/>
<feOffset dy="4"/>
<feGaussianBlur stdDeviation="2"/>
<feComposite in2="hardAlpha" operator="out"/>
<feColorMatrix type="matrix" values="0 0 0 0 0 0 0 0 0 0 0 0 0 0 0 0 0 0 0.25 0"/>
<feBlend mode="normal" in2="BackgroundImageFix" result="effect1_dropShadow_40_18"/>
<feBlend mode="normal" in="SourceGraphic" in2="effect1_dropShadow_40_18" result="shape"/>
</filter>
<filter id="filter1_d_40_18" x="87.9498" y="86.41" width="92.2086" height="12" filterUnits="userSpaceOnUse" color-interpolation-filters="sRGB">
<feFlood flood-opacity="0" result="BackgroundImageFix"/>
<feColorMatrix in="SourceAlpha" type="matrix" values="0 0 0 0 0 0 0 0 0 0 0 0 0 0 0 0 0 0 127 0" result="hardAlpha"/>
<feOffset dy="4"/>
<feGaussianBlur stdDeviation="2"/>
<feComposite in2="hardAlpha" operator="out"/>
<feColorMatrix type="matrix" values="0 0 0 0 0 0 0 0 0 0 0 0 0 0 0 0 0 0 0.25 0"/>
<feBlend mode="normal" in2="BackgroundImageFix" result="effect1_dropShadow_40_18"/>
<feBlend mode="normal" in="SourceGraphic" in2="effect1_dropShadow_40_18" result="shape"/>
</filter>
</defs>
</svg>